<?xml version="1.0" encoding="UTF-8" standalone="no"?>
<!DOCTYPE svg PUBLIC "-//W3C//DTD SVG 1.1//EN"
 "http://www.w3.org/Graphics/SVG/1.1/DTD/svg11.dtd">
<!-- Generated by graphviz version 6.0.2 (20221126.1951)
 -->
<!-- Title: snakemake_dag Pages: 1 -->
<svg width="938pt" height="1052pt"
 viewBox="0.00 0.00 938.00 1052.00" xmlns="http://www.w3.org/2000/svg" xmlns:xlink="http://www.w3.org/1999/xlink">
<g id="graph0" class="graph" transform="scale(1 1) rotate(0) translate(4 1048)">
<title>snakemake_dag</title>
<polygon fill="white" stroke="none" points="-4,4 -4,-1048 934,-1048 934,4 -4,4"/>
<!-- 0 -->
<g id="node1" class="node">
<title>0</title>
<path fill="none" stroke="#d89c56" stroke-width="2" d="M351,-36C351,-36 321,-36 321,-36 315,-36 309,-30 309,-24 309,-24 309,-12 309,-12 309,-6 315,0 321,0 321,0 351,0 351,0 357,0 363,-6 363,-12 363,-12 363,-24 363,-24 363,-30 357,-36 351,-36"/>
<text text-anchor="middle" x="336" y="-15.5" font-family="sans" font-size="10.00">gExcite</text>
</g>
<!-- 1 -->
<g id="node2" class="node">
<title>1</title>
<path fill="none" stroke="#bed856" stroke-width="2" d="M617,-756C617,-756 457,-756 457,-756 451,-756 445,-750 445,-744 445,-744 445,-732 445,-732 445,-726 451,-720 457,-720 457,-720 617,-720 617,-720 623,-720 629,-726 629,-732 629,-732 629,-744 629,-744 629,-750 623,-756 617,-756"/>
<text text-anchor="middle" x="537" y="-735.5" font-family="sans" font-size="10.00">Rscript_demultiplex_count_matrix</text>
</g>
<!-- 1&#45;&gt;0 -->
<g id="edge5" class="edge">
<title>1&#45;&gt;0</title>
<path fill="none" stroke="grey" stroke-width="2" d="M444.99,-731.57C291.54,-719.96 0,-685.95 0,-595 0,-595 0,-595 0,-161 0,-32.44 211.27,-18.48 298.76,-18.21"/>
<polygon fill="grey" stroke="grey" stroke-width="2" points="298.78,-21.71 308.79,-18.24 298.8,-14.71 298.78,-21.71"/>
</g>
<!-- 9 -->
<g id="node10" class="node">
<title>9</title>
<path fill="none" stroke="#56d863" stroke-width="2" d="M370.5,-684C370.5,-684 279.5,-684 279.5,-684 273.5,-684 267.5,-678 267.5,-672 267.5,-672 267.5,-660 267.5,-660 267.5,-654 273.5,-648 279.5,-648 279.5,-648 370.5,-648 370.5,-648 376.5,-648 382.5,-654 382.5,-660 382.5,-660 382.5,-672 382.5,-672 382.5,-678 376.5,-684 370.5,-684"/>
<text text-anchor="middle" x="325" y="-663.5" font-family="sans" font-size="10.00">scampi_create_hdf5</text>
</g>
<!-- 1&#45;&gt;9 -->
<g id="edge18" class="edge">
<title>1&#45;&gt;9</title>
<path fill="none" stroke="grey" stroke-width="2" d="M485.41,-719.97C455.53,-710.1 417.74,-697.62 386.34,-687.25"/>
<polygon fill="grey" stroke="grey" stroke-width="2" points="387.41,-683.92 376.82,-684.11 385.22,-690.57 387.41,-683.92"/>
</g>
<!-- 21 -->
<g id="node22" class="node">
<title>21</title>
<path fill="none" stroke="#56d892" stroke-width="2" d="M824,-108C824,-108 714,-108 714,-108 708,-108 702,-102 702,-96 702,-96 702,-84 702,-84 702,-78 708,-72 714,-72 714,-72 824,-72 824,-72 830,-72 836,-78 836,-84 836,-84 836,-96 836,-96 836,-102 830,-108 824,-108"/>
<text text-anchor="middle" x="769" y="-87.5" font-family="sans" font-size="10.00">Rscript_analyse_citeseq</text>
</g>
<!-- 1&#45;&gt;21 -->
<g id="edge35" class="edge">
<title>1&#45;&gt;21</title>
<path fill="none" stroke="grey" stroke-width="2" d="M611.5,-719.93C672.92,-700.93 750,-663.44 750,-595 750,-595 750,-595 750,-233 750,-192.86 757.55,-146.9 763.13,-118.4"/>
<polygon fill="grey" stroke="grey" stroke-width="2" points="766.61,-118.88 765.16,-108.39 759.74,-117.5 766.61,-118.88"/>
</g>
<!-- 22 -->
<g id="node23" class="node">
<title>22</title>
<path fill="none" stroke="#5682d8" stroke-width="2" d="M918,-540C918,-540 790,-540 790,-540 784,-540 778,-534 778,-528 778,-528 778,-516 778,-516 778,-510 784,-504 790,-504 790,-504 918,-504 918,-504 924,-504 930,-510 930,-516 930,-516 930,-528 930,-528 930,-534 924,-540 918,-540"/>
<text text-anchor="middle" x="854" y="-519.5" font-family="sans" font-size="10.00">create_initial_threshold_file</text>
</g>
<!-- 1&#45;&gt;22 -->
<g id="edge36" class="edge">
<title>1&#45;&gt;22</title>
<path fill="none" stroke="grey" stroke-width="2" d="M629.11,-732.63C673.55,-726.51 725.44,-713.02 764,-684 809.18,-650 834.85,-586.31 846.43,-550.06"/>
<polygon fill="grey" stroke="grey" stroke-width="2" points="849.87,-550.77 849.45,-540.18 843.18,-548.72 849.87,-550.77"/>
</g>
<!-- 2 -->
<g id="node3" class="node">
<title>2</title>
<path fill="none" stroke="#d85656" stroke-width="2" d="M519,-828C519,-828 409,-828 409,-828 403,-828 397,-822 397,-816 397,-816 397,-804 397,-804 397,-798 403,-792 409,-792 409,-792 519,-792 519,-792 525,-792 531,-798 531,-804 531,-804 531,-816 531,-816 531,-822 525,-828 519,-828"/>
<text text-anchor="middle" x="464" y="-807.5" font-family="sans" font-size="10.00">Rscript_analyseHashing</text>
</g>
<!-- 2&#45;&gt;1 -->
<g id="edge11" class="edge">
<title>2&#45;&gt;1</title>
<path fill="none" stroke="grey" stroke-width="2" d="M482.04,-791.7C491.06,-783.05 502.12,-772.45 511.94,-763.03"/>
<polygon fill="grey" stroke="grey" stroke-width="2" points="514.37,-765.55 519.16,-756.1 509.52,-760.5 514.37,-765.55"/>
</g>
<!-- 3 -->
<g id="node4" class="node">
<title>3</title>
<path fill="none" stroke="#566bd8" stroke-width="2" d="M434.5,-900C434.5,-900 363.5,-900 363.5,-900 357.5,-900 351.5,-894 351.5,-888 351.5,-888 351.5,-876 351.5,-876 351.5,-870 357.5,-864 363.5,-864 363.5,-864 434.5,-864 434.5,-864 440.5,-864 446.5,-870 446.5,-876 446.5,-876 446.5,-888 446.5,-888 446.5,-894 440.5,-900 434.5,-900"/>
<text text-anchor="middle" x="399" y="-879.5" font-family="sans" font-size="10.00">CITE_seq_Count</text>
</g>
<!-- 3&#45;&gt;2 -->
<g id="edge14" class="edge">
<title>3&#45;&gt;2</title>
<path fill="none" stroke="grey" stroke-width="2" d="M415.07,-863.7C422.94,-855.22 432.56,-844.86 441.17,-835.58"/>
<polygon fill="grey" stroke="grey" stroke-width="2" points="443.88,-837.81 448.12,-828.1 438.75,-833.05 443.88,-837.81"/>
</g>
<!-- 4 -->
<g id="node5" class="node">
<title>4</title>
<path fill="none" stroke="#d8b456" stroke-width="2" d="M431.5,-972C431.5,-972 366.5,-972 366.5,-972 360.5,-972 354.5,-966 354.5,-960 354.5,-960 354.5,-948 354.5,-948 354.5,-942 360.5,-936 366.5,-936 366.5,-936 431.5,-936 431.5,-936 437.5,-936 443.5,-942 443.5,-948 443.5,-948 443.5,-960 443.5,-960 443.5,-966 437.5,-972 431.5,-972"/>
<text text-anchor="middle" x="399" y="-951.5" font-family="sans" font-size="10.00">create_tag_file</text>
</g>
<!-- 4&#45;&gt;3 -->
<g id="edge15" class="edge">
<title>4&#45;&gt;3</title>
<path fill="none" stroke="grey" stroke-width="2" d="M399,-935.7C399,-927.98 399,-918.71 399,-910.11"/>
<polygon fill="grey" stroke="grey" stroke-width="2" points="402.5,-910.1 399,-900.1 395.5,-910.1 402.5,-910.1"/>
</g>
<!-- 5 -->
<g id="node6" class="node">
<title>5</title>
<path fill="none" stroke="#d88556" stroke-width="2" d="M583.5,-900C583.5,-900 476.5,-900 476.5,-900 470.5,-900 464.5,-894 464.5,-888 464.5,-888 464.5,-876 464.5,-876 464.5,-870 470.5,-864 476.5,-864 476.5,-864 583.5,-864 583.5,-864 589.5,-864 595.5,-870 595.5,-876 595.5,-876 595.5,-888 595.5,-888 595.5,-894 589.5,-900 583.5,-900"/>
<text text-anchor="middle" x="530" y="-879.5" font-family="sans" font-size="10.00">gzip_files_hashingInput</text>
</g>
<!-- 5&#45;&gt;2 -->
<g id="edge13" class="edge">
<title>5&#45;&gt;2</title>
<path fill="none" stroke="grey" stroke-width="2" d="M513.69,-863.7C505.69,-855.22 495.93,-844.86 487.18,-835.58"/>
<polygon fill="grey" stroke="grey" stroke-width="2" points="489.53,-832.98 480.13,-828.1 484.44,-837.78 489.53,-832.98"/>
</g>
<!-- 6 -->
<g id="node7" class="node">
<title>6</title>
<path fill="none" stroke="#61d856" stroke-width="2" d="M577.5,-972C577.5,-972 482.5,-972 482.5,-972 476.5,-972 470.5,-966 470.5,-960 470.5,-960 470.5,-948 470.5,-948 470.5,-942 476.5,-936 482.5,-936 482.5,-936 577.5,-936 577.5,-936 583.5,-936 589.5,-942 589.5,-948 589.5,-948 589.5,-960 589.5,-960 589.5,-966 583.5,-972 577.5,-972"/>
<text text-anchor="middle" x="530" y="-951.5" font-family="sans" font-size="10.00">cellranger_count_adt</text>
</g>
<!-- 6&#45;&gt;5 -->
<g id="edge16" class="edge">
<title>6&#45;&gt;5</title>
<path fill="none" stroke="grey" stroke-width="2" d="M530,-935.7C530,-927.98 530,-918.71 530,-910.11"/>
<polygon fill="grey" stroke="grey" stroke-width="2" points="533.5,-910.1 530,-900.1 526.5,-910.1 533.5,-910.1"/>
</g>
<!-- 7 -->
<g id="node8" class="node">
<title>7</title>
<path fill="none" stroke="#d8c356" stroke-width="2" d="M580.5,-1044C580.5,-1044 479.5,-1044 479.5,-1044 473.5,-1044 467.5,-1038 467.5,-1032 467.5,-1032 467.5,-1020 467.5,-1020 467.5,-1014 473.5,-1008 479.5,-1008 479.5,-1008 580.5,-1008 580.5,-1008 586.5,-1008 592.5,-1014 592.5,-1020 592.5,-1020 592.5,-1032 592.5,-1032 592.5,-1038 586.5,-1044 580.5,-1044"/>
<text text-anchor="middle" x="530" y="-1023.5" font-family="sans" font-size="10.00">create_library_file_adt</text>
</g>
<!-- 7&#45;&gt;6 -->
<g id="edge17" class="edge">
<title>7&#45;&gt;6</title>
<path fill="none" stroke="grey" stroke-width="2" d="M530,-1007.7C530,-999.98 530,-990.71 530,-982.11"/>
<polygon fill="grey" stroke="grey" stroke-width="2" points="533.5,-982.1 530,-972.1 526.5,-982.1 533.5,-982.1"/>
</g>
<!-- 8 -->
<g id="node9" class="node">
<title>8</title>
<path fill="none" stroke="#56d87b" stroke-width="2" d="M658.5,-828C658.5,-828 561.5,-828 561.5,-828 555.5,-828 549.5,-822 549.5,-816 549.5,-816 549.5,-804 549.5,-804 549.5,-798 555.5,-792 561.5,-792 561.5,-792 658.5,-792 658.5,-792 664.5,-792 670.5,-798 670.5,-804 670.5,-804 670.5,-816 670.5,-816 670.5,-822 664.5,-828 658.5,-828"/>
<text text-anchor="middle" x="610" y="-807.5" font-family="sans" font-size="10.00">cellranger_count_gex</text>
</g>
<!-- 8&#45;&gt;1 -->
<g id="edge12" class="edge">
<title>8&#45;&gt;1</title>
<path fill="none" stroke="grey" stroke-width="2" d="M591.96,-791.7C582.94,-783.05 571.88,-772.45 562.06,-763.03"/>
<polygon fill="grey" stroke="grey" stroke-width="2" points="564.48,-760.5 554.84,-756.1 559.63,-765.55 564.48,-760.5"/>
</g>
<!-- 9&#45;&gt;0 -->
<g id="edge1" class="edge">
<title>9&#45;&gt;0</title>
<path fill="none" stroke="grey" stroke-width="2" d="M287.1,-647.96C271.83,-639.28 255.41,-627.28 245,-612 222.23,-578.57 226,-563.45 226,-523 226,-523 226,-523 226,-161 226,-110.76 269.56,-67.52 301.86,-42.36"/>
<polygon fill="grey" stroke="grey" stroke-width="2" points="304.34,-44.88 310.21,-36.06 300.12,-39.29 304.34,-44.88"/>
</g>
<!-- 10 -->
<g id="node11" class="node">
<title>10</title>
<path fill="none" stroke="#d6d856" stroke-width="2" d="M383.5,-612C383.5,-612 266.5,-612 266.5,-612 260.5,-612 254.5,-606 254.5,-600 254.5,-600 254.5,-588 254.5,-588 254.5,-582 260.5,-576 266.5,-576 266.5,-576 383.5,-576 383.5,-576 389.5,-576 395.5,-582 395.5,-588 395.5,-588 395.5,-600 395.5,-600 395.5,-606 389.5,-612 383.5,-612"/>
<text text-anchor="middle" x="325" y="-591.5" font-family="sans" font-size="10.00">scampi_identify_doublets</text>
</g>
<!-- 9&#45;&gt;10 -->
<g id="edge19" class="edge">
<title>9&#45;&gt;10</title>
<path fill="none" stroke="grey" stroke-width="2" d="M325,-647.7C325,-639.98 325,-630.71 325,-622.11"/>
<polygon fill="grey" stroke="grey" stroke-width="2" points="328.5,-622.1 325,-612.1 321.5,-622.1 328.5,-622.1"/>
</g>
<!-- 11 -->
<g id="node12" class="node">
<title>11</title>
<path fill="none" stroke="#56d8d0" stroke-width="2" d="M186,-468C186,-468 40,-468 40,-468 34,-468 28,-462 28,-456 28,-456 28,-444 28,-444 28,-438 34,-432 40,-432 40,-432 186,-432 186,-432 192,-432 198,-438 198,-444 198,-444 198,-456 198,-456 198,-462 192,-468 186,-468"/>
<text text-anchor="middle" x="113" y="-447.5" font-family="sans" font-size="10.00">scampi_generate_qc_plots_raw</text>
</g>
<!-- 9&#45;&gt;11 -->
<g id="edge20" class="edge">
<title>9&#45;&gt;11</title>
<path fill="none" stroke="grey" stroke-width="2" d="M272.87,-647.97C252.29,-639.46 229.45,-627.59 212,-612 169.23,-573.8 138.72,-512.73 123.66,-477.82"/>
<polygon fill="grey" stroke="grey" stroke-width="2" points="126.76,-476.15 119.66,-468.29 120.31,-478.86 126.76,-476.15"/>
</g>
<!-- 13 -->
<g id="node14" class="node">
<title>13</title>
<path fill="none" stroke="#569ad8" stroke-width="2" d="M494.5,-540C494.5,-540 353.5,-540 353.5,-540 347.5,-540 341.5,-534 341.5,-528 341.5,-528 341.5,-516 341.5,-516 341.5,-510 347.5,-504 353.5,-504 353.5,-504 494.5,-504 494.5,-504 500.5,-504 506.5,-510 506.5,-516 506.5,-516 506.5,-528 506.5,-528 506.5,-534 500.5,-540 494.5,-540"/>
<text text-anchor="middle" x="424" y="-519.5" font-family="sans" font-size="10.00">scampi_filter_genes_and_cells</text>
</g>
<!-- 9&#45;&gt;13 -->
<g id="edge22" class="edge">
<title>9&#45;&gt;13</title>
<path fill="none" stroke="grey" stroke-width="2" d="M362.35,-647.81C377.41,-639.1 393.64,-627.13 404,-612 416.47,-593.78 421.29,-569.01 423.1,-550.23"/>
<polygon fill="grey" stroke="grey" stroke-width="2" points="426.59,-550.45 423.83,-540.22 419.61,-549.94 426.59,-550.45"/>
</g>
<!-- 10&#45;&gt;0 -->
<g id="edge4" class="edge">
<title>10&#45;&gt;0</title>
<path fill="none" stroke="grey" stroke-width="2" d="M312.06,-575.66C294.16,-549.88 264,-499.3 264,-451 264,-451 264,-451 264,-161 264,-116.35 292.66,-71.52 313.82,-44.51"/>
<polygon fill="grey" stroke="grey" stroke-width="2" points="316.82,-46.36 320.38,-36.38 311.37,-41.96 316.82,-46.36"/>
</g>
<!-- 10&#45;&gt;13 -->
<g id="edge23" class="edge">
<title>10&#45;&gt;13</title>
<path fill="none" stroke="grey" stroke-width="2" d="M349.22,-575.88C361.92,-566.89 377.66,-555.76 391.42,-546.03"/>
<polygon fill="grey" stroke="grey" stroke-width="2" points="393.54,-548.82 399.69,-540.19 389.5,-543.11 393.54,-548.82"/>
</g>
<!-- 11&#45;&gt;0 -->
<g id="edge9" class="edge">
<title>11&#45;&gt;0</title>
<path fill="none" stroke="grey" stroke-width="2" d="M120.69,-431.91C131.79,-405.62 151,-353.45 151,-307 151,-307 151,-307 151,-161 151,-87.05 245.16,-46.34 299.12,-29.08"/>
<polygon fill="grey" stroke="grey" stroke-width="2" points="300.18,-32.42 308.7,-26.13 298.12,-25.73 300.18,-32.42"/>
</g>
<!-- 12 -->
<g id="node13" class="node">
<title>12</title>
<path fill="none" stroke="#56c9d8" stroke-width="2" d="M587.5,-468C587.5,-468 422.5,-468 422.5,-468 416.5,-468 410.5,-462 410.5,-456 410.5,-456 410.5,-444 410.5,-444 410.5,-438 416.5,-432 422.5,-432 422.5,-432 587.5,-432 587.5,-432 593.5,-432 599.5,-438 599.5,-444 599.5,-444 599.5,-456 599.5,-456 599.5,-462 593.5,-468 587.5,-468"/>
<text text-anchor="middle" x="505" y="-447.5" font-family="sans" font-size="10.00">scampi_sctransform_preprocessing</text>
</g>
<!-- 12&#45;&gt;0 -->
<g id="edge10" class="edge">
<title>12&#45;&gt;0</title>
<path fill="none" stroke="grey" stroke-width="2" d="M437.12,-431.92C378.11,-412.51 302,-374.42 302,-307 302,-307 302,-307 302,-161 302,-119.91 315.63,-73.92 325.63,-45.72"/>
<polygon fill="grey" stroke="grey" stroke-width="2" points="328.97,-46.76 329.12,-36.17 322.4,-44.36 328.97,-46.76"/>
</g>
<!-- 14 -->
<g id="node15" class="node">
<title>14</title>
<path fill="none" stroke="#78d856" stroke-width="2" d="M636.5,-396C636.5,-396 545.5,-396 545.5,-396 539.5,-396 533.5,-390 533.5,-384 533.5,-384 533.5,-372 533.5,-372 533.5,-366 539.5,-360 545.5,-360 545.5,-360 636.5,-360 636.5,-360 642.5,-360 648.5,-366 648.5,-372 648.5,-372 648.5,-384 648.5,-384 648.5,-390 642.5,-396 636.5,-396"/>
<text text-anchor="middle" x="591" y="-375.5" font-family="sans" font-size="10.00">scampi_phenograph</text>
</g>
<!-- 12&#45;&gt;14 -->
<g id="edge24" class="edge">
<title>12&#45;&gt;14</title>
<path fill="none" stroke="grey" stroke-width="2" d="M526.26,-431.7C537.09,-422.88 550.42,-412.03 562.16,-402.47"/>
<polygon fill="grey" stroke="grey" stroke-width="2" points="564.44,-405.13 569.99,-396.1 560.02,-399.7 564.44,-405.13"/>
</g>
<!-- 18 -->
<g id="node19" class="node">
<title>18</title>
<path fill="none" stroke="#8fd856" stroke-width="2" d="M618,-324C618,-324 494,-324 494,-324 488,-324 482,-318 482,-312 482,-312 482,-300 482,-300 482,-294 488,-288 494,-288 494,-288 618,-288 618,-288 624,-288 630,-294 630,-300 630,-300 630,-312 630,-312 630,-318 624,-324 618,-324"/>
<text text-anchor="middle" x="556" y="-303.5" font-family="sans" font-size="10.00">scampi_prepare_celltyping</text>
</g>
<!-- 12&#45;&gt;18 -->
<g id="edge29" class="edge">
<title>12&#45;&gt;18</title>
<path fill="none" stroke="grey" stroke-width="2" d="M506.95,-431.78C509.41,-413.48 514.53,-383.95 524,-360 527.66,-350.75 532.85,-341.26 538,-332.92"/>
<polygon fill="grey" stroke="grey" stroke-width="2" points="541.02,-334.68 543.48,-324.38 535.13,-330.9 541.02,-334.68"/>
</g>
<!-- 12&#45;&gt;21 -->
<g id="edge34" class="edge">
<title>12&#45;&gt;21</title>
<path fill="none" stroke="grey" stroke-width="2" d="M585.96,-431.95C610.58,-423.96 636.51,-412.44 657,-396 693.26,-366.89 712,-353.5 712,-307 712,-307 712,-307 712,-233 712,-192.03 719.66,-181.57 736,-144 740,-134.8 745.42,-125.33 750.71,-116.98"/>
<polygon fill="grey" stroke="grey" stroke-width="2" points="753.76,-118.71 756.33,-108.43 747.91,-114.87 753.76,-118.71"/>
</g>
<!-- 13&#45;&gt;12 -->
<g id="edge21" class="edge">
<title>13&#45;&gt;12</title>
<path fill="none" stroke="grey" stroke-width="2" d="M444.02,-503.7C454.13,-494.97 466.54,-484.24 477.52,-474.75"/>
<polygon fill="grey" stroke="grey" stroke-width="2" points="479.93,-477.29 485.21,-468.1 475.35,-471.99 479.93,-477.29"/>
</g>
<!-- 14&#45;&gt;0 -->
<g id="edge8" class="edge">
<title>14&#45;&gt;0</title>
<path fill="none" stroke="grey" stroke-width="2" d="M609.42,-359.64C633.87,-334.62 674,-285.83 674,-235 674,-235 674,-235 674,-161 674,-120.46 683.46,-99.86 654,-72 614.12,-34.29 448.73,-23.26 373.53,-20.15"/>
<polygon fill="grey" stroke="grey" stroke-width="2" points="373.24,-16.64 363.11,-19.75 372.97,-23.64 373.24,-16.64"/>
</g>
<!-- 14&#45;&gt;18 -->
<g id="edge28" class="edge">
<title>14&#45;&gt;18</title>
<path fill="none" stroke="grey" stroke-width="2" d="M582.35,-359.7C578.36,-351.73 573.55,-342.1 569.13,-333.26"/>
<polygon fill="grey" stroke="grey" stroke-width="2" points="572.15,-331.48 564.55,-324.1 565.89,-334.61 572.15,-331.48"/>
</g>
<!-- 15 -->
<g id="node16" class="node">
<title>15</title>
<path fill="none" stroke="#d86e56" stroke-width="2" d="M520,-108C520,-108 440,-108 440,-108 434,-108 428,-102 428,-96 428,-96 428,-84 428,-84 428,-78 434,-72 440,-72 440,-72 520,-72 520,-72 526,-72 532,-78 532,-84 532,-84 532,-96 532,-96 532,-102 526,-108 520,-108"/>
<text text-anchor="middle" x="480" y="-87.5" font-family="sans" font-size="10.00">scampi_gene_exp</text>
</g>
<!-- 15&#45;&gt;0 -->
<g id="edge3" class="edge">
<title>15&#45;&gt;0</title>
<path fill="none" stroke="grey" stroke-width="2" d="M444.77,-71.88C422.77,-61.18 394.51,-47.44 372.3,-36.65"/>
<polygon fill="grey" stroke="grey" stroke-width="2" points="373.72,-33.44 363.2,-32.22 370.66,-39.74 373.72,-33.44"/>
</g>
<!-- 16 -->
<g id="node17" class="node">
<title>16</title>
<path fill="none" stroke="#56b1d8" stroke-width="2" d="M613.5,-180C613.5,-180 498.5,-180 498.5,-180 492.5,-180 486.5,-174 486.5,-168 486.5,-168 486.5,-156 486.5,-156 486.5,-150 492.5,-144 498.5,-144 498.5,-144 613.5,-144 613.5,-144 619.5,-144 625.5,-150 625.5,-156 625.5,-156 625.5,-168 625.5,-168 625.5,-174 619.5,-180 613.5,-180"/>
<text text-anchor="middle" x="556" y="-159.5" font-family="sans" font-size="10.00">scampi_remove_atypical</text>
</g>
<!-- 16&#45;&gt;15 -->
<g id="edge25" class="edge">
<title>16&#45;&gt;15</title>
<path fill="none" stroke="grey" stroke-width="2" d="M537.21,-143.7C527.83,-135.05 516.32,-124.45 506.09,-115.03"/>
<polygon fill="grey" stroke="grey" stroke-width="2" points="508.3,-112.3 498.57,-108.1 503.55,-117.45 508.3,-112.3"/>
</g>
<!-- 19 -->
<g id="node20" class="node">
<title>19</title>
<path fill="none" stroke="#56d8a2" stroke-width="2" d="M633.5,-108C633.5,-108 562.5,-108 562.5,-108 556.5,-108 550.5,-102 550.5,-96 550.5,-96 550.5,-84 550.5,-84 550.5,-78 556.5,-72 562.5,-72 562.5,-72 633.5,-72 633.5,-72 639.5,-72 645.5,-78 645.5,-84 645.5,-84 645.5,-96 645.5,-96 645.5,-102 639.5,-108 633.5,-108"/>
<text text-anchor="middle" x="598" y="-87.5" font-family="sans" font-size="10.00">scampi_plotting</text>
</g>
<!-- 16&#45;&gt;19 -->
<g id="edge30" class="edge">
<title>16&#45;&gt;19</title>
<path fill="none" stroke="grey" stroke-width="2" d="M566.38,-143.7C571.26,-135.56 577.19,-125.69 582.58,-116.7"/>
<polygon fill="grey" stroke="grey" stroke-width="2" points="585.59,-118.48 587.74,-108.1 579.59,-114.88 585.59,-118.48"/>
</g>
<!-- 20 -->
<g id="node21" class="node">
<title>20</title>
<path fill="none" stroke="#56d8b9" stroke-width="2" d="M398,-108C398,-108 342,-108 342,-108 336,-108 330,-102 330,-96 330,-96 330,-84 330,-84 330,-78 336,-72 342,-72 342,-72 398,-72 398,-72 404,-72 410,-78 410,-84 410,-84 410,-96 410,-96 410,-102 404,-108 398,-108"/>
<text text-anchor="middle" x="370" y="-87.5" font-family="sans" font-size="10.00">scampi_gsva</text>
</g>
<!-- 16&#45;&gt;20 -->
<g id="edge31" class="edge">
<title>16&#45;&gt;20</title>
<path fill="none" stroke="grey" stroke-width="2" d="M510.5,-143.88C483.08,-133.56 448.13,-120.4 419.95,-109.8"/>
<polygon fill="grey" stroke="grey" stroke-width="2" points="420.88,-106.41 410.29,-106.16 418.41,-112.96 420.88,-106.41"/>
</g>
<!-- 16&#45;&gt;21 -->
<g id="edge33" class="edge">
<title>16&#45;&gt;21</title>
<path fill="none" stroke="grey" stroke-width="2" d="M607.83,-143.97C637.85,-134.1 675.82,-121.62 707.37,-111.25"/>
<polygon fill="grey" stroke="grey" stroke-width="2" points="708.53,-114.56 716.93,-108.11 706.34,-107.91 708.53,-114.56"/>
</g>
<!-- 17 -->
<g id="node18" class="node">
<title>17</title>
<path fill="none" stroke="#a7d856" stroke-width="2" d="M596.5,-252C596.5,-252 515.5,-252 515.5,-252 509.5,-252 503.5,-246 503.5,-240 503.5,-240 503.5,-228 503.5,-228 503.5,-222 509.5,-216 515.5,-216 515.5,-216 596.5,-216 596.5,-216 602.5,-216 608.5,-222 608.5,-228 608.5,-228 608.5,-240 608.5,-240 608.5,-246 602.5,-252 596.5,-252"/>
<text text-anchor="middle" x="556" y="-231.5" font-family="sans" font-size="10.00">scampi_celltyping</text>
</g>
<!-- 17&#45;&gt;16 -->
<g id="edge26" class="edge">
<title>17&#45;&gt;16</title>
<path fill="none" stroke="grey" stroke-width="2" d="M556,-215.7C556,-207.98 556,-198.71 556,-190.11"/>
<polygon fill="grey" stroke="grey" stroke-width="2" points="559.5,-190.1 556,-180.1 552.5,-190.1 559.5,-190.1"/>
</g>
<!-- 18&#45;&gt;17 -->
<g id="edge27" class="edge">
<title>18&#45;&gt;17</title>
<path fill="none" stroke="grey" stroke-width="2" d="M556,-287.7C556,-279.98 556,-270.71 556,-262.11"/>
<polygon fill="grey" stroke="grey" stroke-width="2" points="559.5,-262.1 556,-252.1 552.5,-262.1 559.5,-262.1"/>
</g>
<!-- 19&#45;&gt;0 -->
<g id="edge7" class="edge">
<title>19&#45;&gt;0</title>
<path fill="none" stroke="grey" stroke-width="2" d="M550.45,-74.68C547.26,-73.76 544.08,-72.86 541,-72 482.56,-55.74 414.28,-38.42 373.13,-28.16"/>
<polygon fill="grey" stroke="grey" stroke-width="2" points="373.83,-24.73 363.28,-25.71 372.14,-31.52 373.83,-24.73"/>
</g>
<!-- 20&#45;&gt;0 -->
<g id="edge2" class="edge">
<title>20&#45;&gt;0</title>
<path fill="none" stroke="grey" stroke-width="2" d="M361.6,-71.7C357.73,-63.73 353.05,-54.1 348.76,-45.26"/>
<polygon fill="grey" stroke="grey" stroke-width="2" points="351.83,-43.57 344.31,-36.1 345.53,-46.63 351.83,-43.57"/>
</g>
<!-- 21&#45;&gt;0 -->
<g id="edge6" class="edge">
<title>21&#45;&gt;0</title>
<path fill="none" stroke="grey" stroke-width="2" d="M701.87,-74.6C697.18,-73.69 692.53,-72.81 688,-72 573.64,-51.41 437.37,-32.47 373.08,-23.87"/>
<polygon fill="grey" stroke="grey" stroke-width="2" points="373.4,-20.38 363.02,-22.53 372.48,-27.32 373.4,-20.38"/>
</g>
<!-- 22&#45;&gt;21 -->
<g id="edge32" class="edge">
<title>22&#45;&gt;21</title>
<path fill="none" stroke="grey" stroke-width="2" d="M847.32,-503.81C837.68,-477.4 821,-425.06 821,-379 821,-379 821,-379 821,-233 821,-190.49 800.2,-144.95 784.91,-117.22"/>
<polygon fill="grey" stroke="grey" stroke-width="2" points="787.76,-115.15 779.77,-108.19 781.67,-118.61 787.76,-115.15"/>
</g>
</g>
</svg>
