<?xml version="1.0" encoding="UTF-8" standalone="no"?>
<!DOCTYPE svg PUBLIC "-//W3C//DTD SVG 1.1//EN"
 "http://www.w3.org/Graphics/SVG/1.1/DTD/svg11.dtd">
<!-- Generated by graphviz version 6.0.2 (20221126.1951)
 -->
<!-- Title: snakemake_dag Pages: 1 -->
<svg width="513pt" height="692pt"
 viewBox="0.00 0.00 513.00 692.00" xmlns="http://www.w3.org/2000/svg" xmlns:xlink="http://www.w3.org/1999/xlink">
<g id="graph0" class="graph" transform="scale(1 1) rotate(0) translate(4 688)">
<title>snakemake_dag</title>
<polygon fill="white" stroke="none" points="-4,4 -4,-688 509,-688 509,4 -4,4"/>
<!-- 0 -->
<g id="node1" class="node">
<title>0</title>
<path fill="none" stroke="#56d882" stroke-width="2" d="M334,-36C334,-36 304,-36 304,-36 298,-36 292,-30 292,-24 292,-24 292,-12 292,-12 292,-6 298,0 304,0 304,0 334,0 334,0 340,0 346,-6 346,-12 346,-12 346,-24 346,-24 346,-30 340,-36 334,-36"/>
<text text-anchor="middle" x="319" y="-15.5" font-family="sans" font-size="10.00">gExcite</text>
</g>
<!-- 1 -->
<g id="node2" class="node">
<title>1</title>
<path fill="none" stroke="#88d856" stroke-width="2" d="M146,-468C146,-468 12,-468 12,-468 6,-468 0,-462 0,-456 0,-456 0,-444 0,-444 0,-438 6,-432 12,-432 12,-432 146,-432 146,-432 152,-432 158,-438 158,-444 158,-444 158,-456 158,-456 158,-462 152,-468 146,-468"/>
<text text-anchor="middle" x="79" y="-447.5" font-family="sans" font-size="10.00">scampi_generate_qc_plots_raw</text>
</g>
<!-- 1&#45;&gt;0 -->
<g id="edge1" class="edge">
<title>1&#45;&gt;0</title>
<path fill="none" stroke="grey" stroke-width="2" d="M74.35,-431.66C67.62,-405.05 56,-352.45 56,-307 56,-307 56,-307 56,-161 56,-59.61 209.21,-30.27 281.75,-22.06"/>
<polygon fill="grey" stroke="grey" stroke-width="2" points="282.27,-25.53 291.84,-21 281.53,-18.56 282.27,-25.53"/>
</g>
<!-- 2 -->
<g id="node3" class="node">
<title>2</title>
<path fill="none" stroke="#d85656" stroke-width="2" d="M274,-612C274,-612 190,-612 190,-612 184,-612 178,-606 178,-600 178,-600 178,-588 178,-588 178,-582 184,-576 190,-576 190,-576 274,-576 274,-576 280,-576 286,-582 286,-588 286,-588 286,-600 286,-600 286,-606 280,-612 274,-612"/>
<text text-anchor="middle" x="232" y="-591.5" font-family="sans" font-size="10.00">scampi_create_hdf5</text>
</g>
<!-- 2&#45;&gt;1 -->
<g id="edge5" class="edge">
<title>2&#45;&gt;1</title>
<path fill="none" stroke="grey" stroke-width="2" d="M204.04,-575.91C189.11,-566.2 170.82,-553.35 156,-540 134.28,-520.43 112.78,-494.94 98.05,-476.25"/>
<polygon fill="grey" stroke="grey" stroke-width="2" points="100.68,-473.93 91.78,-468.19 95.15,-478.23 100.68,-473.93"/>
</g>
<!-- 8 -->
<g id="node9" class="node">
<title>8</title>
<path fill="none" stroke="#5673d8" stroke-width="2" d="M392,-468C392,-468 262,-468 262,-468 256,-468 250,-462 250,-456 250,-456 250,-444 250,-444 250,-438 256,-432 262,-432 262,-432 392,-432 392,-432 398,-432 404,-438 404,-444 404,-444 404,-456 404,-456 404,-462 398,-468 392,-468"/>
<text text-anchor="middle" x="327" y="-447.5" font-family="sans" font-size="10.00">scampi_filter_genes_and_cells</text>
</g>
<!-- 2&#45;&gt;8 -->
<g id="edge12" class="edge">
<title>2&#45;&gt;8</title>
<path fill="none" stroke="grey" stroke-width="2" d="M266.7,-575.89C281.22,-567.07 297,-554.99 307,-540 319.25,-521.63 324.09,-496.88 325.96,-478.14"/>
<polygon fill="grey" stroke="grey" stroke-width="2" points="329.45,-478.4 326.73,-468.16 322.47,-477.86 329.45,-478.4"/>
</g>
<!-- 9 -->
<g id="node10" class="node">
<title>9</title>
<path fill="none" stroke="#56d863" stroke-width="2" d="M286.5,-540C286.5,-540 177.5,-540 177.5,-540 171.5,-540 165.5,-534 165.5,-528 165.5,-528 165.5,-516 165.5,-516 165.5,-510 171.5,-504 177.5,-504 177.5,-504 286.5,-504 286.5,-504 292.5,-504 298.5,-510 298.5,-516 298.5,-516 298.5,-528 298.5,-528 298.5,-534 292.5,-540 286.5,-540"/>
<text text-anchor="middle" x="232" y="-519.5" font-family="sans" font-size="10.00">scampi_identify_doublets</text>
</g>
<!-- 2&#45;&gt;9 -->
<g id="edge14" class="edge">
<title>2&#45;&gt;9</title>
<path fill="none" stroke="grey" stroke-width="2" d="M232,-575.7C232,-567.98 232,-558.71 232,-550.11"/>
<polygon fill="grey" stroke="grey" stroke-width="2" points="235.5,-550.1 232,-540.1 228.5,-550.1 235.5,-550.1"/>
</g>
<!-- 3 -->
<g id="node4" class="node">
<title>3</title>
<path fill="none" stroke="#d87556" stroke-width="2" d="M277.5,-684C277.5,-684 186.5,-684 186.5,-684 180.5,-684 174.5,-678 174.5,-672 174.5,-672 174.5,-660 174.5,-660 174.5,-654 180.5,-648 186.5,-648 186.5,-648 277.5,-648 277.5,-648 283.5,-648 289.5,-654 289.5,-660 289.5,-660 289.5,-672 289.5,-672 289.5,-678 283.5,-684 277.5,-684"/>
<text text-anchor="middle" x="232" y="-663.5" font-family="sans" font-size="10.00">cellranger_count_gex</text>
</g>
<!-- 3&#45;&gt;2 -->
<g id="edge6" class="edge">
<title>3&#45;&gt;2</title>
<path fill="none" stroke="grey" stroke-width="2" d="M232,-647.7C232,-639.98 232,-630.71 232,-622.11"/>
<polygon fill="grey" stroke="grey" stroke-width="2" points="235.5,-622.1 232,-612.1 228.5,-622.1 235.5,-622.1"/>
</g>
<!-- 4 -->
<g id="node5" class="node">
<title>4</title>
<path fill="none" stroke="#56d8a2" stroke-width="2" d="M421,-108C421,-108 347,-108 347,-108 341,-108 335,-102 335,-96 335,-96 335,-84 335,-84 335,-78 341,-72 347,-72 347,-72 421,-72 421,-72 427,-72 433,-78 433,-84 433,-84 433,-96 433,-96 433,-102 427,-108 421,-108"/>
<text text-anchor="middle" x="384" y="-87.5" font-family="sans" font-size="10.00">scampi_gene_exp</text>
</g>
<!-- 4&#45;&gt;0 -->
<g id="edge2" class="edge">
<title>4&#45;&gt;0</title>
<path fill="none" stroke="grey" stroke-width="2" d="M367.93,-71.7C360.06,-63.22 350.44,-52.86 341.83,-43.58"/>
<polygon fill="grey" stroke="grey" stroke-width="2" points="344.25,-41.05 334.88,-36.1 339.12,-45.81 344.25,-41.05"/>
</g>
<!-- 5 -->
<g id="node6" class="node">
<title>5</title>
<path fill="none" stroke="#68d856" stroke-width="2" d="M423.5,-180C423.5,-180 350.5,-180 350.5,-180 344.5,-180 338.5,-174 338.5,-168 338.5,-168 338.5,-156 338.5,-156 338.5,-150 344.5,-144 350.5,-144 350.5,-144 423.5,-144 423.5,-144 429.5,-144 435.5,-150 435.5,-156 435.5,-156 435.5,-168 435.5,-168 435.5,-174 429.5,-180 423.5,-180"/>
<text text-anchor="middle" x="387" y="-159.5" font-family="sans" font-size="10.00">scampi_celltyping</text>
</g>
<!-- 5&#45;&gt;4 -->
<g id="edge7" class="edge">
<title>5&#45;&gt;4</title>
<path fill="none" stroke="grey" stroke-width="2" d="M386.26,-143.7C385.93,-135.98 385.53,-126.71 385.16,-118.11"/>
<polygon fill="grey" stroke="grey" stroke-width="2" points="388.66,-117.95 384.73,-108.1 381.66,-118.25 388.66,-117.95"/>
</g>
<!-- 11 -->
<g id="node12" class="node">
<title>11</title>
<path fill="none" stroke="#9fd856" stroke-width="2" d="M493,-108C493,-108 463,-108 463,-108 457,-108 451,-102 451,-96 451,-96 451,-84 451,-84 451,-78 457,-72 463,-72 463,-72 493,-72 493,-72 499,-72 505,-78 505,-84 505,-84 505,-96 505,-96 505,-102 499,-108 493,-108"/>
<text text-anchor="middle" x="478" y="-87.5" font-family="sans" font-size="10.00">plotting</text>
</g>
<!-- 5&#45;&gt;11 -->
<g id="edge16" class="edge">
<title>5&#45;&gt;11</title>
<path fill="none" stroke="grey" stroke-width="2" d="M409.49,-143.7C420.96,-134.88 435.06,-124.03 447.48,-114.47"/>
<polygon fill="grey" stroke="grey" stroke-width="2" points="449.97,-116.98 455.76,-108.1 445.7,-111.43 449.97,-116.98"/>
</g>
<!-- 12 -->
<g id="node13" class="node">
<title>12</title>
<path fill="none" stroke="#56d0d8" stroke-width="2" d="M304.5,-108C304.5,-108 203.5,-108 203.5,-108 197.5,-108 191.5,-102 191.5,-96 191.5,-96 191.5,-84 191.5,-84 191.5,-78 197.5,-72 203.5,-72 203.5,-72 304.5,-72 304.5,-72 310.5,-72 316.5,-78 316.5,-84 316.5,-84 316.5,-96 316.5,-96 316.5,-102 310.5,-108 304.5,-108"/>
<text text-anchor="middle" x="254" y="-87.5" font-family="sans" font-size="10.00">Rscript_analyse_citeseq</text>
</g>
<!-- 5&#45;&gt;12 -->
<g id="edge18" class="edge">
<title>5&#45;&gt;12</title>
<path fill="none" stroke="grey" stroke-width="2" d="M354.46,-143.88C336.75,-134.55 314.65,-122.92 295.68,-112.94"/>
<polygon fill="grey" stroke="grey" stroke-width="2" points="297.14,-109.75 286.66,-108.19 293.88,-115.94 297.14,-109.75"/>
</g>
<!-- 6 -->
<g id="node7" class="node">
<title>6</title>
<path fill="none" stroke="#56d8c1" stroke-width="2" d="M446,-252C446,-252 332,-252 332,-252 326,-252 320,-246 320,-240 320,-240 320,-228 320,-228 320,-222 326,-216 332,-216 332,-216 446,-216 446,-216 452,-216 458,-222 458,-228 458,-228 458,-240 458,-240 458,-246 452,-252 446,-252"/>
<text text-anchor="middle" x="389" y="-231.5" font-family="sans" font-size="10.00">scampi_prepare_celltyping</text>
</g>
<!-- 6&#45;&gt;5 -->
<g id="edge8" class="edge">
<title>6&#45;&gt;5</title>
<path fill="none" stroke="grey" stroke-width="2" d="M388.51,-215.7C388.29,-207.98 388.02,-198.71 387.77,-190.11"/>
<polygon fill="grey" stroke="grey" stroke-width="2" points="391.27,-190 387.49,-180.1 384.28,-190.2 391.27,-190"/>
</g>
<!-- 7 -->
<g id="node8" class="node">
<title>7</title>
<path fill="none" stroke="#d8b456" stroke-width="2" d="M410,-396C410,-396 256,-396 256,-396 250,-396 244,-390 244,-384 244,-384 244,-372 244,-372 244,-366 250,-360 256,-360 256,-360 410,-360 410,-360 416,-360 422,-366 422,-372 422,-372 422,-384 422,-384 422,-390 416,-396 410,-396"/>
<text text-anchor="middle" x="333" y="-375.5" font-family="sans" font-size="10.00">scampi_sctransform_preprocessing</text>
</g>
<!-- 7&#45;&gt;6 -->
<g id="edge9" class="edge">
<title>7&#45;&gt;6</title>
<path fill="none" stroke="grey" stroke-width="2" d="M394.41,-359.95C411.84,-351.97 428.83,-340.45 439,-324 447.41,-310.39 444.91,-302.87 439,-288 434.71,-277.2 427.06,-267.32 419.01,-259.1"/>
<polygon fill="grey" stroke="grey" stroke-width="2" points="421.25,-256.4 411.6,-252.04 416.42,-261.47 421.25,-256.4"/>
</g>
<!-- 10 -->
<g id="node11" class="node">
<title>10</title>
<path fill="none" stroke="#5692d8" stroke-width="2" d="M418,-324C418,-324 332,-324 332,-324 326,-324 320,-318 320,-312 320,-312 320,-300 320,-300 320,-294 326,-288 332,-288 332,-288 418,-288 418,-288 424,-288 430,-294 430,-300 430,-300 430,-312 430,-312 430,-318 424,-324 418,-324"/>
<text text-anchor="middle" x="375" y="-303.5" font-family="sans" font-size="10.00">scampi_phenograph</text>
</g>
<!-- 7&#45;&gt;10 -->
<g id="edge15" class="edge">
<title>7&#45;&gt;10</title>
<path fill="none" stroke="grey" stroke-width="2" d="M343.38,-359.7C348.26,-351.56 354.19,-341.69 359.58,-332.7"/>
<polygon fill="grey" stroke="grey" stroke-width="2" points="362.59,-334.48 364.74,-324.1 356.59,-330.88 362.59,-334.48"/>
</g>
<!-- 7&#45;&gt;12 -->
<g id="edge17" class="edge">
<title>7&#45;&gt;12</title>
<path fill="none" stroke="grey" stroke-width="2" d="M324.98,-359.59C320.47,-349.37 314.97,-336.12 311,-324 287.04,-250.88 267.97,-161.94 259.22,-118.1"/>
<polygon fill="grey" stroke="grey" stroke-width="2" points="262.64,-117.34 257.27,-108.21 255.77,-118.7 262.64,-117.34"/>
</g>
<!-- 8&#45;&gt;7 -->
<g id="edge11" class="edge">
<title>8&#45;&gt;7</title>
<path fill="none" stroke="grey" stroke-width="2" d="M328.48,-431.7C329.14,-423.98 329.94,-414.71 330.68,-406.11"/>
<polygon fill="grey" stroke="grey" stroke-width="2" points="334.17,-406.37 331.53,-396.1 327.19,-405.77 334.17,-406.37"/>
</g>
<!-- 9&#45;&gt;8 -->
<g id="edge13" class="edge">
<title>9&#45;&gt;8</title>
<path fill="none" stroke="grey" stroke-width="2" d="M255.48,-503.7C267.56,-494.8 282.45,-483.82 295.52,-474.2"/>
<polygon fill="grey" stroke="grey" stroke-width="2" points="297.81,-476.85 303.79,-468.1 293.66,-471.22 297.81,-476.85"/>
</g>
<!-- 10&#45;&gt;6 -->
<g id="edge10" class="edge">
<title>10&#45;&gt;6</title>
<path fill="none" stroke="grey" stroke-width="2" d="M378.46,-287.7C380,-279.98 381.86,-270.71 383.58,-262.11"/>
<polygon fill="grey" stroke="grey" stroke-width="2" points="387.05,-262.6 385.58,-252.1 380.19,-261.22 387.05,-262.6"/>
</g>
<!-- 11&#45;&gt;0 -->
<g id="edge4" class="edge">
<title>11&#45;&gt;0</title>
<path fill="none" stroke="grey" stroke-width="2" d="M450.92,-76.09C447.92,-74.69 444.9,-73.31 442,-72 413.19,-58.99 380.29,-44.85 355.77,-34.45"/>
<polygon fill="grey" stroke="grey" stroke-width="2" points="357.05,-31.2 346.48,-30.52 354.32,-37.64 357.05,-31.2"/>
</g>
<!-- 12&#45;&gt;0 -->
<g id="edge3" class="edge">
<title>12&#45;&gt;0</title>
<path fill="none" stroke="grey" stroke-width="2" d="M270.07,-71.7C277.94,-63.22 287.56,-52.86 296.17,-43.58"/>
<polygon fill="grey" stroke="grey" stroke-width="2" points="298.88,-45.81 303.12,-36.1 293.75,-41.05 298.88,-45.81"/>
</g>
<!-- 13 -->
<g id="node14" class="node">
<title>13</title>
<path fill="none" stroke="#56b1d8" stroke-width="2" d="M224.5,-252C224.5,-252 135.5,-252 135.5,-252 129.5,-252 123.5,-246 123.5,-240 123.5,-240 123.5,-228 123.5,-228 123.5,-222 129.5,-216 135.5,-216 135.5,-216 224.5,-216 224.5,-216 230.5,-216 236.5,-222 236.5,-228 236.5,-228 236.5,-240 236.5,-240 236.5,-246 230.5,-252 224.5,-252"/>
<text text-anchor="middle" x="180" y="-231.5" font-family="sans" font-size="10.00">cellranger_count_adt</text>
</g>
<!-- 13&#45;&gt;12 -->
<g id="edge19" class="edge">
<title>13&#45;&gt;12</title>
<path fill="none" stroke="grey" stroke-width="2" d="M203.53,-215.8C214.7,-206.42 227.27,-193.91 235,-180 245.58,-160.95 250.28,-136.59 252.36,-118.18"/>
<polygon fill="grey" stroke="grey" stroke-width="2" points="255.85,-118.39 253.3,-108.1 248.88,-117.73 255.85,-118.39"/>
</g>
<!-- 15 -->
<g id="node16" class="node">
<title>15</title>
<path fill="none" stroke="#bed856" stroke-width="2" d="M214,-180C214,-180 96,-180 96,-180 90,-180 84,-174 84,-168 84,-168 84,-156 84,-156 84,-150 90,-144 96,-144 96,-144 214,-144 214,-144 220,-144 226,-150 226,-156 226,-156 226,-168 226,-168 226,-174 220,-180 214,-180"/>
<text text-anchor="middle" x="155" y="-159.5" font-family="sans" font-size="10.00">create_initial_threshold_file</text>
</g>
<!-- 13&#45;&gt;15 -->
<g id="edge22" class="edge">
<title>13&#45;&gt;15</title>
<path fill="none" stroke="grey" stroke-width="2" d="M173.82,-215.7C171,-207.81 167.61,-198.3 164.48,-189.55"/>
<polygon fill="grey" stroke="grey" stroke-width="2" points="167.77,-188.34 161.11,-180.1 161.18,-190.7 167.77,-188.34"/>
</g>
<!-- 14 -->
<g id="node15" class="node">
<title>14</title>
<path fill="none" stroke="#d89556" stroke-width="2" d="M227,-324C227,-324 133,-324 133,-324 127,-324 121,-318 121,-312 121,-312 121,-300 121,-300 121,-294 127,-288 133,-288 133,-288 227,-288 227,-288 233,-288 239,-294 239,-300 239,-300 239,-312 239,-312 239,-318 233,-324 227,-324"/>
<text text-anchor="middle" x="180" y="-303.5" font-family="sans" font-size="10.00">create_library_file_adt</text>
</g>
<!-- 14&#45;&gt;13 -->
<g id="edge21" class="edge">
<title>14&#45;&gt;13</title>
<path fill="none" stroke="grey" stroke-width="2" d="M180,-287.7C180,-279.98 180,-270.71 180,-262.11"/>
<polygon fill="grey" stroke="grey" stroke-width="2" points="183.5,-262.1 180,-252.1 176.5,-262.1 183.5,-262.1"/>
</g>
<!-- 15&#45;&gt;12 -->
<g id="edge20" class="edge">
<title>15&#45;&gt;12</title>
<path fill="none" stroke="grey" stroke-width="2" d="M179.22,-143.88C191.92,-134.89 207.66,-123.76 221.42,-114.03"/>
<polygon fill="grey" stroke="grey" stroke-width="2" points="223.54,-116.82 229.69,-108.19 219.5,-111.11 223.54,-116.82"/>
</g>
</g>
</svg>
