<?xml version="1.0" encoding="UTF-8" standalone="no"?>
<!DOCTYPE svg PUBLIC "-//W3C//DTD SVG 1.1//EN"
 "http://www.w3.org/Graphics/SVG/1.1/DTD/svg11.dtd">
<!-- Generated by graphviz version 11.0.0 (20240519.1550)
 -->
<!-- Title: snakemake_dag Pages: 1 -->
<svg width="582pt" height="1052pt"
 viewBox="0.00 0.00 581.50 1052.00" xmlns="http://www.w3.org/2000/svg" xmlns:xlink="http://www.w3.org/1999/xlink">
<g id="graph0" class="graph" transform="scale(1 1) rotate(0) translate(4 1048)">
<title>snakemake_dag</title>
<polygon fill="white" stroke="none" points="-4,4 -4,-1048 577.5,-1048 577.5,4 -4,4"/>
<!-- 0 -->
<g id="node1" class="node">
<title>0</title>
<path fill="none" stroke="#56d89a" stroke-width="2" d="M251.88,-36C251.88,-36 221.88,-36 221.88,-36 215.88,-36 209.88,-30 209.88,-24 209.88,-24 209.88,-12 209.88,-12 209.88,-6 215.88,0 221.88,0 221.88,0 251.88,0 251.88,0 257.88,0 263.88,-6 263.88,-12 263.88,-12 263.88,-24 263.88,-24 263.88,-30 257.88,-36 251.88,-36"/>
<text text-anchor="middle" x="236.88" y="-15.62" font-family="sans" font-size="10.00">gExcite</text>
</g>
<!-- 1 -->
<g id="node2" class="node">
<title>1</title>
<path fill="none" stroke="#5682d8" stroke-width="2" d="M145.75,-468C145.75,-468 12,-468 12,-468 6,-468 0,-462 0,-456 0,-456 0,-444 0,-444 0,-438 6,-432 12,-432 12,-432 145.75,-432 145.75,-432 151.75,-432 157.75,-438 157.75,-444 157.75,-444 157.75,-456 157.75,-456 157.75,-462 151.75,-468 145.75,-468"/>
<text text-anchor="middle" x="78.88" y="-447.62" font-family="sans" font-size="10.00">scampi_generate_qc_plots_raw</text>
</g>
<!-- 1&#45;&gt;0 -->
<g id="edge3" class="edge">
<title>1&#45;&gt;0</title>
<path fill="none" stroke="grey" stroke-width="2" d="M72.66,-431.32C63.87,-404.71 48.88,-352.61 48.88,-307 48.88,-307 48.88,-307 48.88,-161 48.88,-120.55 40.64,-101.91 67.88,-72 100.65,-36 157.53,-24.26 196.16,-20.54"/>
<polygon fill="grey" stroke="grey" stroke-width="2" points="196.28,-24.04 205.98,-19.77 195.73,-17.06 196.28,-24.04"/>
</g>
<!-- 2 -->
<g id="node3" class="node">
<title>2</title>
<path fill="none" stroke="#d86e56" stroke-width="2" d="M304.62,-684C304.62,-684 221.12,-684 221.12,-684 215.12,-684 209.12,-678 209.12,-672 209.12,-672 209.12,-660 209.12,-660 209.12,-654 215.12,-648 221.12,-648 221.12,-648 304.62,-648 304.62,-648 310.62,-648 316.62,-654 316.62,-660 316.62,-660 316.62,-672 316.62,-672 316.62,-678 310.62,-684 304.62,-684"/>
<text text-anchor="middle" x="262.88" y="-663.62" font-family="sans" font-size="10.00">scampi_create_hdf5</text>
</g>
<!-- 2&#45;&gt;1 -->
<g id="edge6" class="edge">
<title>2&#45;&gt;1</title>
<path fill="none" stroke="grey" stroke-width="2" d="M247.5,-647.12C215.37,-609.75 140.91,-523.14 102.59,-478.58"/>
<polygon fill="grey" stroke="grey" stroke-width="2" points="105.48,-476.57 96.31,-471.27 100.17,-481.14 105.48,-476.57"/>
</g>
<!-- 16 -->
<g id="node17" class="node">
<title>16</title>
<path fill="none" stroke="#56d8c1" stroke-width="2" d="M347.5,-540C347.5,-540 218.25,-540 218.25,-540 212.25,-540 206.25,-534 206.25,-528 206.25,-528 206.25,-516 206.25,-516 206.25,-510 212.25,-504 218.25,-504 218.25,-504 347.5,-504 347.5,-504 353.5,-504 359.5,-510 359.5,-516 359.5,-516 359.5,-528 359.5,-528 359.5,-534 353.5,-540 347.5,-540"/>
<text text-anchor="middle" x="282.88" y="-519.62" font-family="sans" font-size="10.00">scampi_filter_genes_and_cells</text>
</g>
<!-- 2&#45;&gt;16 -->
<g id="edge22" class="edge">
<title>2&#45;&gt;16</title>
<path fill="none" stroke="grey" stroke-width="2" d="M250.08,-647.04C238.82,-628.9 225.55,-600.18 234.88,-576 238.51,-566.58 244.68,-557.79 251.41,-550.19"/>
<polygon fill="grey" stroke="grey" stroke-width="2" points="253.84,-552.7 258.3,-543.09 248.82,-547.83 253.84,-552.7"/>
</g>
<!-- 17 -->
<g id="node18" class="node">
<title>17</title>
<path fill="none" stroke="#d8c356" stroke-width="2" d="M364,-612C364,-612 255.75,-612 255.75,-612 249.75,-612 243.75,-606 243.75,-600 243.75,-600 243.75,-588 243.75,-588 243.75,-582 249.75,-576 255.75,-576 255.75,-576 364,-576 364,-576 370,-576 376,-582 376,-588 376,-588 376,-600 376,-600 376,-606 370,-612 364,-612"/>
<text text-anchor="middle" x="309.88" y="-591.62" font-family="sans" font-size="10.00">scampi_identify_doublets</text>
</g>
<!-- 2&#45;&gt;17 -->
<g id="edge23" class="edge">
<title>2&#45;&gt;17</title>
<path fill="none" stroke="grey" stroke-width="2" d="M274.74,-647.34C279.6,-640.1 285.35,-631.53 290.77,-623.45"/>
<polygon fill="grey" stroke="grey" stroke-width="2" points="293.5,-625.67 296.17,-615.41 287.69,-621.77 293.5,-625.67"/>
</g>
<!-- 3 -->
<g id="node4" class="node">
<title>3</title>
<path fill="none" stroke="#d89556" stroke-width="2" d="M477.5,-756C477.5,-756 330.25,-756 330.25,-756 324.25,-756 318.25,-750 318.25,-744 318.25,-744 318.25,-732 318.25,-732 318.25,-726 324.25,-720 330.25,-720 330.25,-720 477.5,-720 477.5,-720 483.5,-720 489.5,-726 489.5,-732 489.5,-732 489.5,-744 489.5,-744 489.5,-750 483.5,-756 477.5,-756"/>
<text text-anchor="middle" x="403.88" y="-735.62" font-family="sans" font-size="10.00">Rscript_demultiplex_count_matrix</text>
</g>
<!-- 3&#45;&gt;2 -->
<g id="edge7" class="edge">
<title>3&#45;&gt;2</title>
<path fill="none" stroke="grey" stroke-width="2" d="M367.93,-719.15C350.45,-710.47 329.19,-699.92 310.39,-690.59"/>
<polygon fill="grey" stroke="grey" stroke-width="2" points="311.98,-687.47 301.47,-686.16 308.87,-693.74 311.98,-687.47"/>
</g>
<!-- 21 -->
<g id="node22" class="node">
<title>21</title>
<path fill="none" stroke="#d8ac56" stroke-width="2" d="M502.88,-108C502.88,-108 402.88,-108 402.88,-108 396.88,-108 390.88,-102 390.88,-96 390.88,-96 390.88,-84 390.88,-84 390.88,-78 396.88,-72 402.88,-72 402.88,-72 502.88,-72 502.88,-72 508.88,-72 514.88,-78 514.88,-84 514.88,-84 514.88,-96 514.88,-96 514.88,-102 508.88,-108 502.88,-108"/>
<text text-anchor="middle" x="452.88" y="-87.62" font-family="sans" font-size="10.00">Rscript_analyse_citeseq</text>
</g>
<!-- 3&#45;&gt;21 -->
<g id="edge28" class="edge">
<title>3&#45;&gt;21</title>
<path fill="none" stroke="grey" stroke-width="2" d="M403.88,-719.07C403.88,-692.13 403.88,-639.62 403.88,-595 403.88,-595 403.88,-595 403.88,-233 403.88,-192.11 422.26,-148.04 436.5,-120.02"/>
<polygon fill="grey" stroke="grey" stroke-width="2" points="439.49,-121.86 441.07,-111.38 433.3,-118.59 439.49,-121.86"/>
</g>
<!-- 22 -->
<g id="node23" class="node">
<title>22</title>
<path fill="none" stroke="#56d882" stroke-width="2" d="M561.5,-540C561.5,-540 444.25,-540 444.25,-540 438.25,-540 432.25,-534 432.25,-528 432.25,-528 432.25,-516 432.25,-516 432.25,-510 438.25,-504 444.25,-504 444.25,-504 561.5,-504 561.5,-504 567.5,-504 573.5,-510 573.5,-516 573.5,-516 573.5,-528 573.5,-528 573.5,-534 567.5,-540 561.5,-540"/>
<text text-anchor="middle" x="502.88" y="-519.62" font-family="sans" font-size="10.00">create_initial_threshold_file</text>
</g>
<!-- 3&#45;&gt;22 -->
<g id="edge31" class="edge">
<title>3&#45;&gt;22</title>
<path fill="none" stroke="grey" stroke-width="2" d="M412.15,-719.12C429.18,-682.3 468.32,-597.69 489.19,-552.58"/>
<polygon fill="grey" stroke="grey" stroke-width="2" points="492.27,-554.27 493.29,-543.72 485.91,-551.33 492.27,-554.27"/>
</g>
<!-- 4 -->
<g id="node5" class="node">
<title>4</title>
<path fill="none" stroke="#59d856" stroke-width="2" d="M385.88,-828C385.88,-828 285.88,-828 285.88,-828 279.88,-828 273.88,-822 273.88,-816 273.88,-816 273.88,-804 273.88,-804 273.88,-798 279.88,-792 285.88,-792 285.88,-792 385.88,-792 385.88,-792 391.88,-792 397.88,-798 397.88,-804 397.88,-804 397.88,-816 397.88,-816 397.88,-822 391.88,-828 385.88,-828"/>
<text text-anchor="middle" x="335.88" y="-807.62" font-family="sans" font-size="10.00">Rscript_analyseHashing</text>
</g>
<!-- 4&#45;&gt;3 -->
<g id="edge8" class="edge">
<title>4&#45;&gt;3</title>
<path fill="none" stroke="grey" stroke-width="2" d="M353.03,-791.34C360.47,-783.69 369.34,-774.56 377.57,-766.08"/>
<polygon fill="grey" stroke="grey" stroke-width="2" points="379.92,-768.68 384.38,-759.07 374.9,-763.81 379.92,-768.68"/>
</g>
<!-- 5 -->
<g id="node6" class="node">
<title>5</title>
<path fill="none" stroke="#56c1d8" stroke-width="2" d="M306.62,-900C306.62,-900 241.12,-900 241.12,-900 235.12,-900 229.12,-894 229.12,-888 229.12,-888 229.12,-876 229.12,-876 229.12,-870 235.12,-864 241.12,-864 241.12,-864 306.62,-864 306.62,-864 312.62,-864 318.62,-870 318.62,-876 318.62,-876 318.62,-888 318.62,-888 318.62,-894 312.62,-900 306.62,-900"/>
<text text-anchor="middle" x="273.88" y="-879.62" font-family="sans" font-size="10.00">CITE_seq_Count</text>
</g>
<!-- 5&#45;&gt;4 -->
<g id="edge10" class="edge">
<title>5&#45;&gt;4</title>
<path fill="none" stroke="grey" stroke-width="2" d="M289.52,-863.34C296.15,-855.85 304.04,-846.95 311.41,-838.63"/>
<polygon fill="grey" stroke="grey" stroke-width="2" points="314,-840.97 318.01,-831.17 308.76,-836.33 314,-840.97"/>
</g>
<!-- 6 -->
<g id="node7" class="node">
<title>6</title>
<path fill="none" stroke="#d85656" stroke-width="2" d="M303.62,-972C303.62,-972 244.12,-972 244.12,-972 238.12,-972 232.12,-966 232.12,-960 232.12,-960 232.12,-948 232.12,-948 232.12,-942 238.12,-936 244.12,-936 244.12,-936 303.62,-936 303.62,-936 309.62,-936 315.62,-942 315.62,-948 315.62,-948 315.62,-960 315.62,-960 315.62,-966 309.62,-972 303.62,-972"/>
<text text-anchor="middle" x="273.88" y="-951.62" font-family="sans" font-size="10.00">create_tag_file</text>
</g>
<!-- 6&#45;&gt;5 -->
<g id="edge12" class="edge">
<title>6&#45;&gt;5</title>
<path fill="none" stroke="grey" stroke-width="2" d="M273.88,-935.34C273.88,-928.75 273.88,-921.08 273.88,-913.67"/>
<polygon fill="grey" stroke="grey" stroke-width="2" points="277.38,-913.93 273.88,-903.93 270.38,-913.93 277.38,-913.93"/>
</g>
<!-- 7 -->
<g id="node8" class="node">
<title>7</title>
<path fill="none" stroke="#97d856" stroke-width="2" d="M448.88,-900C448.88,-900 348.88,-900 348.88,-900 342.88,-900 336.88,-894 336.88,-888 336.88,-888 336.88,-876 336.88,-876 336.88,-870 342.88,-864 348.88,-864 348.88,-864 448.88,-864 448.88,-864 454.88,-864 460.88,-870 460.88,-876 460.88,-876 460.88,-888 460.88,-888 460.88,-894 454.88,-900 448.88,-900"/>
<text text-anchor="middle" x="398.88" y="-879.62" font-family="sans" font-size="10.00">gzip_files_hashingInput</text>
</g>
<!-- 7&#45;&gt;4 -->
<g id="edge11" class="edge">
<title>7&#45;&gt;4</title>
<path fill="none" stroke="grey" stroke-width="2" d="M382.98,-863.34C376.17,-855.77 368.05,-846.75 360.49,-838.35"/>
<polygon fill="grey" stroke="grey" stroke-width="2" points="363.3,-836.24 354.01,-831.15 358.1,-840.93 363.3,-836.24"/>
</g>
<!-- 8 -->
<g id="node9" class="node">
<title>8</title>
<path fill="none" stroke="#c6d856" stroke-width="2" d="M443.25,-972C443.25,-972 354.5,-972 354.5,-972 348.5,-972 342.5,-966 342.5,-960 342.5,-960 342.5,-948 342.5,-948 342.5,-942 348.5,-936 354.5,-936 354.5,-936 443.25,-936 443.25,-936 449.25,-936 455.25,-942 455.25,-948 455.25,-948 455.25,-960 455.25,-960 455.25,-966 449.25,-972 443.25,-972"/>
<text text-anchor="middle" x="398.88" y="-951.62" font-family="sans" font-size="10.00">cellranger_count_adt</text>
</g>
<!-- 8&#45;&gt;7 -->
<g id="edge13" class="edge">
<title>8&#45;&gt;7</title>
<path fill="none" stroke="grey" stroke-width="2" d="M398.88,-935.34C398.88,-928.75 398.88,-921.08 398.88,-913.67"/>
<polygon fill="grey" stroke="grey" stroke-width="2" points="402.38,-913.93 398.88,-903.93 395.38,-913.93 402.38,-913.93"/>
</g>
<!-- 9 -->
<g id="node10" class="node">
<title>9</title>
<path fill="none" stroke="#56d86b" stroke-width="2" d="M445.5,-1044C445.5,-1044 352.25,-1044 352.25,-1044 346.25,-1044 340.25,-1038 340.25,-1032 340.25,-1032 340.25,-1020 340.25,-1020 340.25,-1014 346.25,-1008 352.25,-1008 352.25,-1008 445.5,-1008 445.5,-1008 451.5,-1008 457.5,-1014 457.5,-1020 457.5,-1020 457.5,-1032 457.5,-1032 457.5,-1038 451.5,-1044 445.5,-1044"/>
<text text-anchor="middle" x="398.88" y="-1023.62" font-family="sans" font-size="10.00">create_library_file_adt</text>
</g>
<!-- 9&#45;&gt;8 -->
<g id="edge14" class="edge">
<title>9&#45;&gt;8</title>
<path fill="none" stroke="grey" stroke-width="2" d="M398.88,-1007.34C398.88,-1000.75 398.88,-993.08 398.88,-985.67"/>
<polygon fill="grey" stroke="grey" stroke-width="2" points="402.38,-985.93 398.88,-975.93 395.38,-985.93 402.38,-985.93"/>
</g>
<!-- 10 -->
<g id="node11" class="node">
<title>10</title>
<path fill="none" stroke="#80d856" stroke-width="2" d="M518,-828C518,-828 427.75,-828 427.75,-828 421.75,-828 415.75,-822 415.75,-816 415.75,-816 415.75,-804 415.75,-804 415.75,-798 421.75,-792 427.75,-792 427.75,-792 518,-792 518,-792 524,-792 530,-798 530,-804 530,-804 530,-816 530,-816 530,-822 524,-828 518,-828"/>
<text text-anchor="middle" x="472.88" y="-807.62" font-family="sans" font-size="10.00">cellranger_count_gex</text>
</g>
<!-- 10&#45;&gt;3 -->
<g id="edge9" class="edge">
<title>10&#45;&gt;3</title>
<path fill="none" stroke="grey" stroke-width="2" d="M455.46,-791.34C447.92,-783.69 438.92,-774.56 430.57,-766.08"/>
<polygon fill="grey" stroke="grey" stroke-width="2" points="433.16,-763.72 423.65,-759.06 428.17,-768.64 433.16,-763.72"/>
</g>
<!-- 11 -->
<g id="node12" class="node">
<title>11</title>
<path fill="none" stroke="#56d8a9" stroke-width="2" d="M162.38,-108C162.38,-108 89.38,-108 89.38,-108 83.38,-108 77.38,-102 77.38,-96 77.38,-96 77.38,-84 77.38,-84 77.38,-78 83.38,-72 89.38,-72 89.38,-72 162.38,-72 162.38,-72 168.38,-72 174.38,-78 174.38,-84 174.38,-84 174.38,-96 174.38,-96 174.38,-102 168.38,-108 162.38,-108"/>
<text text-anchor="middle" x="125.88" y="-87.62" font-family="sans" font-size="10.00">scampi_gene_exp</text>
</g>
<!-- 11&#45;&gt;0 -->
<g id="edge5" class="edge">
<title>11&#45;&gt;0</title>
<path fill="none" stroke="grey" stroke-width="2" d="M154.17,-71.15C167.58,-62.7 183.81,-52.47 198.32,-43.31"/>
<polygon fill="grey" stroke="grey" stroke-width="2" points="199.86,-46.48 206.45,-38.18 196.13,-40.56 199.86,-46.48"/>
</g>
<!-- 12 -->
<g id="node13" class="node">
<title>12</title>
<path fill="none" stroke="#56d8d8" stroke-width="2" d="M299.38,-180C299.38,-180 196.38,-180 196.38,-180 190.38,-180 184.38,-174 184.38,-168 184.38,-168 184.38,-156 184.38,-156 184.38,-150 190.38,-144 196.38,-144 196.38,-144 299.38,-144 299.38,-144 305.38,-144 311.38,-150 311.38,-156 311.38,-156 311.38,-168 311.38,-168 311.38,-174 305.38,-180 299.38,-180"/>
<text text-anchor="middle" x="247.88" y="-159.62" font-family="sans" font-size="10.00">scampi_remove_atypical</text>
</g>
<!-- 12&#45;&gt;11 -->
<g id="edge15" class="edge">
<title>12&#45;&gt;11</title>
<path fill="none" stroke="grey" stroke-width="2" d="M216.77,-143.15C202,-134.68 184.13,-124.42 168.15,-115.25"/>
<polygon fill="grey" stroke="grey" stroke-width="2" points="169.96,-112.26 159.55,-110.32 166.48,-118.33 169.96,-112.26"/>
</g>
<!-- 19 -->
<g id="node20" class="node">
<title>19</title>
<path fill="none" stroke="#68d856" stroke-width="2" d="M268.88,-108C268.88,-108 204.88,-108 204.88,-108 198.88,-108 192.88,-102 192.88,-96 192.88,-96 192.88,-84 192.88,-84 192.88,-78 198.88,-72 204.88,-72 204.88,-72 268.88,-72 268.88,-72 274.88,-72 280.88,-78 280.88,-84 280.88,-84 280.88,-96 280.88,-96 280.88,-102 274.88,-108 268.88,-108"/>
<text text-anchor="middle" x="236.88" y="-87.62" font-family="sans" font-size="10.00">scampi_plotting</text>
</g>
<!-- 12&#45;&gt;19 -->
<g id="edge25" class="edge">
<title>12&#45;&gt;19</title>
<path fill="none" stroke="grey" stroke-width="2" d="M245.1,-143.34C244.06,-136.75 242.86,-129.08 241.69,-121.67"/>
<polygon fill="grey" stroke="grey" stroke-width="2" points="245.17,-121.23 240.16,-111.89 238.25,-122.31 245.17,-121.23"/>
</g>
<!-- 20 -->
<g id="node21" class="node">
<title>20</title>
<path fill="none" stroke="#569ad8" stroke-width="2" d="M360.38,-108C360.38,-108 311.38,-108 311.38,-108 305.38,-108 299.38,-102 299.38,-96 299.38,-96 299.38,-84 299.38,-84 299.38,-78 305.38,-72 311.38,-72 311.38,-72 360.38,-72 360.38,-72 366.38,-72 372.38,-78 372.38,-84 372.38,-84 372.38,-96 372.38,-96 372.38,-102 366.38,-108 360.38,-108"/>
<text text-anchor="middle" x="335.88" y="-87.62" font-family="sans" font-size="10.00">scampi_gsva</text>
</g>
<!-- 12&#45;&gt;20 -->
<g id="edge26" class="edge">
<title>12&#45;&gt;20</title>
<path fill="none" stroke="grey" stroke-width="2" d="M270.08,-143.34C280.11,-135.36 292.17,-125.77 303.2,-116.99"/>
<polygon fill="grey" stroke="grey" stroke-width="2" points="305.35,-119.75 311,-110.79 301,-114.27 305.35,-119.75"/>
</g>
<!-- 12&#45;&gt;21 -->
<g id="edge29" class="edge">
<title>12&#45;&gt;21</title>
<path fill="none" stroke="grey" stroke-width="2" d="M300.4,-143.06C327.17,-133.93 359.95,-122.73 388.25,-113.07"/>
<polygon fill="grey" stroke="grey" stroke-width="2" points="389.29,-116.41 397.62,-109.87 387.03,-109.79 389.29,-116.41"/>
</g>
<!-- 13 -->
<g id="node14" class="node">
<title>13</title>
<path fill="none" stroke="#566bd8" stroke-width="2" d="M284,-252C284,-252 211.75,-252 211.75,-252 205.75,-252 199.75,-246 199.75,-240 199.75,-240 199.75,-228 199.75,-228 199.75,-222 205.75,-216 211.75,-216 211.75,-216 284,-216 284,-216 290,-216 296,-222 296,-228 296,-228 296,-240 296,-240 296,-246 290,-252 284,-252"/>
<text text-anchor="middle" x="247.88" y="-231.62" font-family="sans" font-size="10.00">scampi_celltyping</text>
</g>
<!-- 13&#45;&gt;12 -->
<g id="edge16" class="edge">
<title>13&#45;&gt;12</title>
<path fill="none" stroke="grey" stroke-width="2" d="M247.88,-215.34C247.88,-208.75 247.88,-201.08 247.88,-193.67"/>
<polygon fill="grey" stroke="grey" stroke-width="2" points="251.38,-193.93 247.88,-183.93 244.38,-193.93 251.38,-193.93"/>
</g>
<!-- 14 -->
<g id="node15" class="node">
<title>14</title>
<path fill="none" stroke="#56a9d8" stroke-width="2" d="M304.62,-324C304.62,-324 191.12,-324 191.12,-324 185.12,-324 179.12,-318 179.12,-312 179.12,-312 179.12,-300 179.12,-300 179.12,-294 185.12,-288 191.12,-288 191.12,-288 304.62,-288 304.62,-288 310.62,-288 316.62,-294 316.62,-300 316.62,-300 316.62,-312 316.62,-312 316.62,-318 310.62,-324 304.62,-324"/>
<text text-anchor="middle" x="247.88" y="-303.62" font-family="sans" font-size="10.00">scampi_prepare_celltyping</text>
</g>
<!-- 14&#45;&gt;13 -->
<g id="edge17" class="edge">
<title>14&#45;&gt;13</title>
<path fill="none" stroke="grey" stroke-width="2" d="M247.88,-287.34C247.88,-280.75 247.88,-273.08 247.88,-265.67"/>
<polygon fill="grey" stroke="grey" stroke-width="2" points="251.38,-265.93 247.88,-255.93 244.38,-265.93 251.38,-265.93"/>
</g>
<!-- 15 -->
<g id="node16" class="node">
<title>15</title>
<path fill="none" stroke="#d6d856" stroke-width="2" d="M359.5,-468C359.5,-468 206.25,-468 206.25,-468 200.25,-468 194.25,-462 194.25,-456 194.25,-456 194.25,-444 194.25,-444 194.25,-438 200.25,-432 206.25,-432 206.25,-432 359.5,-432 359.5,-432 365.5,-432 371.5,-438 371.5,-444 371.5,-444 371.5,-456 371.5,-456 371.5,-462 365.5,-468 359.5,-468"/>
<text text-anchor="middle" x="282.88" y="-447.62" font-family="sans" font-size="10.00">scampi_sctransform_preprocessing</text>
</g>
<!-- 15&#45;&gt;14 -->
<g id="edge19" class="edge">
<title>15&#45;&gt;14</title>
<path fill="none" stroke="grey" stroke-width="2" d="M251.58,-431.09C239.3,-422.26 226.57,-410.38 219.88,-396 210.89,-376.7 218.51,-353.75 228.06,-336"/>
<polygon fill="grey" stroke="grey" stroke-width="2" points="231,-337.9 233.08,-327.51 224.98,-334.33 231,-337.9"/>
</g>
<!-- 18 -->
<g id="node19" class="node">
<title>18</title>
<path fill="none" stroke="#d88556" stroke-width="2" d="M325.38,-396C325.38,-396 240.38,-396 240.38,-396 234.38,-396 228.38,-390 228.38,-384 228.38,-384 228.38,-372 228.38,-372 228.38,-366 234.38,-360 240.38,-360 240.38,-360 325.38,-360 325.38,-360 331.38,-360 337.38,-366 337.38,-372 337.38,-372 337.38,-384 337.38,-384 337.38,-390 331.38,-396 325.38,-396"/>
<text text-anchor="middle" x="282.88" y="-375.62" font-family="sans" font-size="10.00">scampi_phenograph</text>
</g>
<!-- 15&#45;&gt;18 -->
<g id="edge24" class="edge">
<title>15&#45;&gt;18</title>
<path fill="none" stroke="grey" stroke-width="2" d="M282.88,-431.34C282.88,-424.75 282.88,-417.08 282.88,-409.67"/>
<polygon fill="grey" stroke="grey" stroke-width="2" points="286.38,-409.93 282.88,-399.93 279.38,-409.93 286.38,-409.93"/>
</g>
<!-- 15&#45;&gt;21 -->
<g id="edge30" class="edge">
<title>15&#45;&gt;21</title>
<path fill="none" stroke="grey" stroke-width="2" d="M312.24,-431.15C324.73,-422.11 338.35,-410.07 346.88,-396 367.83,-361.41 365.88,-347.45 365.88,-307 365.88,-307 365.88,-307 365.88,-233 365.88,-192.03 367.86,-178.55 389.88,-144 396.36,-133.82 405.43,-124.59 414.66,-116.79"/>
<polygon fill="grey" stroke="grey" stroke-width="2" points="416.58,-119.73 422.26,-110.78 412.24,-114.24 416.58,-119.73"/>
</g>
<!-- 16&#45;&gt;15 -->
<g id="edge20" class="edge">
<title>16&#45;&gt;15</title>
<path fill="none" stroke="grey" stroke-width="2" d="M282.88,-503.34C282.88,-496.75 282.88,-489.08 282.88,-481.67"/>
<polygon fill="grey" stroke="grey" stroke-width="2" points="286.38,-481.93 282.88,-471.93 279.38,-481.93 286.38,-481.93"/>
</g>
<!-- 17&#45;&gt;16 -->
<g id="edge21" class="edge">
<title>17&#45;&gt;16</title>
<path fill="none" stroke="grey" stroke-width="2" d="M303.06,-575.34C300.43,-568.51 297.34,-560.5 294.38,-552.83"/>
<polygon fill="grey" stroke="grey" stroke-width="2" points="297.73,-551.8 290.87,-543.73 291.2,-554.32 297.73,-551.8"/>
</g>
<!-- 18&#45;&gt;14 -->
<g id="edge18" class="edge">
<title>18&#45;&gt;14</title>
<path fill="none" stroke="grey" stroke-width="2" d="M274.04,-359.34C270.55,-352.34 266.43,-344.12 262.52,-336.28"/>
<polygon fill="grey" stroke="grey" stroke-width="2" points="265.78,-334.99 258.18,-327.61 259.52,-338.12 265.78,-334.99"/>
</g>
<!-- 19&#45;&gt;0 -->
<g id="edge1" class="edge">
<title>19&#45;&gt;0</title>
<path fill="none" stroke="grey" stroke-width="2" d="M236.88,-71.34C236.88,-64.75 236.88,-57.08 236.88,-49.67"/>
<polygon fill="grey" stroke="grey" stroke-width="2" points="240.38,-49.93 236.88,-39.93 233.38,-49.93 240.38,-49.93"/>
</g>
<!-- 20&#45;&gt;0 -->
<g id="edge2" class="edge">
<title>20&#45;&gt;0</title>
<path fill="none" stroke="grey" stroke-width="2" d="M310.64,-71.15C299.12,-63.01 285.27,-53.22 272.7,-44.33"/>
<polygon fill="grey" stroke="grey" stroke-width="2" points="274.72,-41.48 264.54,-38.56 270.68,-47.19 274.72,-41.48"/>
</g>
<!-- 21&#45;&gt;0 -->
<g id="edge4" class="edge">
<title>21&#45;&gt;0</title>
<path fill="none" stroke="grey" stroke-width="2" d="M397.53,-71.06C359.85,-58.85 310.84,-42.97 276.91,-31.97"/>
<polygon fill="grey" stroke="grey" stroke-width="2" points="278.17,-28.7 267.58,-28.95 276.01,-35.36 278.17,-28.7"/>
</g>
<!-- 22&#45;&gt;21 -->
<g id="edge27" class="edge">
<title>22&#45;&gt;21</title>
<path fill="none" stroke="grey" stroke-width="2" d="M497.69,-503.24C490.37,-476.53 477.88,-424.31 477.88,-379 477.88,-379 477.88,-379 477.88,-233 477.88,-193.89 468.56,-149.62 461.3,-121.06"/>
<polygon fill="grey" stroke="grey" stroke-width="2" points="464.76,-120.46 458.83,-111.68 458,-122.25 464.76,-120.46"/>
</g>
</g>
</svg>
