<?xml version="1.0" encoding="UTF-8" standalone="no"?>
<!DOCTYPE svg PUBLIC "-//W3C//DTD SVG 1.1//EN"
 "http://www.w3.org/Graphics/SVG/1.1/DTD/svg11.dtd">
<!-- Generated by graphviz version 6.0.2 (20221126.1951)
 -->
<!-- Title: snakemake_dag Pages: 1 -->
<svg width="477pt" height="764pt"
 viewBox="0.00 0.00 477.00 764.00" xmlns="http://www.w3.org/2000/svg" xmlns:xlink="http://www.w3.org/1999/xlink">
<g id="graph0" class="graph" transform="scale(1 1) rotate(0) translate(4 760)">
<title>snakemake_dag</title>
<polygon fill="white" stroke="none" points="-4,4 -4,-760 473,-760 473,4 -4,4"/>
<!-- 0 -->
<g id="node1" class="node">
<title>0</title>
<path fill="none" stroke="#70d856" stroke-width="2" d="M211,-36C211,-36 181,-36 181,-36 175,-36 169,-30 169,-24 169,-24 169,-12 169,-12 169,-6 175,0 181,0 181,0 211,0 211,0 217,0 223,-6 223,-12 223,-12 223,-24 223,-24 223,-30 217,-36 211,-36"/>
<text text-anchor="middle" x="196" y="-15.5" font-family="sans" font-size="10.00">gExcite</text>
</g>
<!-- 1 -->
<g id="node2" class="node">
<title>1</title>
<path fill="none" stroke="#56d88a" stroke-width="2" d="M146,-540C146,-540 12,-540 12,-540 6,-540 0,-534 0,-528 0,-528 0,-516 0,-516 0,-510 6,-504 12,-504 12,-504 146,-504 146,-504 152,-504 158,-510 158,-516 158,-516 158,-528 158,-528 158,-534 152,-540 146,-540"/>
<text text-anchor="middle" x="79" y="-519.5" font-family="sans" font-size="10.00">scampi_generate_qc_plots_raw</text>
</g>
<!-- 1&#45;&gt;0 -->
<g id="edge1" class="edge">
<title>1&#45;&gt;0</title>
<path fill="none" stroke="grey" stroke-width="2" d="M75.76,-503.58C71.09,-476.87 63,-424.15 63,-379 63,-379 63,-379 63,-161 63,-120.55 56.79,-103.63 82,-72 101.1,-48.04 133.52,-34.42 158.92,-27.01"/>
<polygon fill="grey" stroke="grey" stroke-width="2" points="159.89,-30.37 168.62,-24.37 158.05,-23.62 159.89,-30.37"/>
</g>
<!-- 2 -->
<g id="node3" class="node">
<title>2</title>
<path fill="none" stroke="#d6d856" stroke-width="2" d="M250,-684C250,-684 166,-684 166,-684 160,-684 154,-678 154,-672 154,-672 154,-660 154,-660 154,-654 160,-648 166,-648 166,-648 250,-648 250,-648 256,-648 262,-654 262,-660 262,-660 262,-672 262,-672 262,-678 256,-684 250,-684"/>
<text text-anchor="middle" x="208" y="-663.5" font-family="sans" font-size="10.00">scampi_create_hdf5</text>
</g>
<!-- 2&#45;&gt;1 -->
<g id="edge5" class="edge">
<title>2&#45;&gt;1</title>
<path fill="none" stroke="grey" stroke-width="2" d="M177.58,-647.98C162.67,-638.66 145.15,-626.13 132,-612 114.68,-593.39 100.33,-568.2 90.95,-549.36"/>
<polygon fill="grey" stroke="grey" stroke-width="2" points="94.01,-547.65 86.51,-540.16 87.7,-550.69 94.01,-547.65"/>
</g>
<!-- 9 -->
<g id="node10" class="node">
<title>9</title>
<path fill="none" stroke="#a7d856" stroke-width="2" d="M368,-540C368,-540 238,-540 238,-540 232,-540 226,-534 226,-528 226,-528 226,-516 226,-516 226,-510 232,-504 238,-504 238,-504 368,-504 368,-504 374,-504 380,-510 380,-516 380,-516 380,-528 380,-528 380,-534 374,-540 368,-540"/>
<text text-anchor="middle" x="303" y="-519.5" font-family="sans" font-size="10.00">scampi_filter_genes_and_cells</text>
</g>
<!-- 2&#45;&gt;9 -->
<g id="edge14" class="edge">
<title>2&#45;&gt;9</title>
<path fill="none" stroke="grey" stroke-width="2" d="M242.7,-647.89C257.22,-639.07 273,-626.99 283,-612 295.25,-593.63 300.09,-568.88 301.96,-550.14"/>
<polygon fill="grey" stroke="grey" stroke-width="2" points="305.45,-550.4 302.73,-540.16 298.47,-549.86 305.45,-550.4"/>
</g>
<!-- 10 -->
<g id="node11" class="node">
<title>10</title>
<path fill="none" stroke="#bed856" stroke-width="2" d="M262.5,-612C262.5,-612 153.5,-612 153.5,-612 147.5,-612 141.5,-606 141.5,-600 141.5,-600 141.5,-588 141.5,-588 141.5,-582 147.5,-576 153.5,-576 153.5,-576 262.5,-576 262.5,-576 268.5,-576 274.5,-582 274.5,-588 274.5,-588 274.5,-600 274.5,-600 274.5,-606 268.5,-612 262.5,-612"/>
<text text-anchor="middle" x="208" y="-591.5" font-family="sans" font-size="10.00">scampi_identify_doublets</text>
</g>
<!-- 2&#45;&gt;10 -->
<g id="edge15" class="edge">
<title>2&#45;&gt;10</title>
<path fill="none" stroke="grey" stroke-width="2" d="M208,-647.7C208,-639.98 208,-630.71 208,-622.11"/>
<polygon fill="grey" stroke="grey" stroke-width="2" points="211.5,-622.1 208,-612.1 204.5,-622.1 211.5,-622.1"/>
</g>
<!-- 3 -->
<g id="node4" class="node">
<title>3</title>
<path fill="none" stroke="#56d873" stroke-width="2" d="M253.5,-756C253.5,-756 162.5,-756 162.5,-756 156.5,-756 150.5,-750 150.5,-744 150.5,-744 150.5,-732 150.5,-732 150.5,-726 156.5,-720 162.5,-720 162.5,-720 253.5,-720 253.5,-720 259.5,-720 265.5,-726 265.5,-732 265.5,-732 265.5,-744 265.5,-744 265.5,-750 259.5,-756 253.5,-756"/>
<text text-anchor="middle" x="208" y="-735.5" font-family="sans" font-size="10.00">cellranger_count_gex</text>
</g>
<!-- 3&#45;&gt;2 -->
<g id="edge6" class="edge">
<title>3&#45;&gt;2</title>
<path fill="none" stroke="grey" stroke-width="2" d="M208,-719.7C208,-711.98 208,-702.71 208,-694.11"/>
<polygon fill="grey" stroke="grey" stroke-width="2" points="211.5,-694.1 208,-684.1 204.5,-694.1 211.5,-694.1"/>
</g>
<!-- 4 -->
<g id="node5" class="node">
<title>4</title>
<path fill="none" stroke="#59d856" stroke-width="2" d="M177,-108C177,-108 103,-108 103,-108 97,-108 91,-102 91,-96 91,-96 91,-84 91,-84 91,-78 97,-72 103,-72 103,-72 177,-72 177,-72 183,-72 189,-78 189,-84 189,-84 189,-96 189,-96 189,-102 183,-108 177,-108"/>
<text text-anchor="middle" x="140" y="-87.5" font-family="sans" font-size="10.00">scampi_gene_exp</text>
</g>
<!-- 4&#45;&gt;0 -->
<g id="edge2" class="edge">
<title>4&#45;&gt;0</title>
<path fill="none" stroke="grey" stroke-width="2" d="M153.84,-71.7C160.49,-63.39 168.58,-53.28 175.89,-44.14"/>
<polygon fill="grey" stroke="grey" stroke-width="2" points="178.8,-46.1 182.32,-36.1 173.34,-41.73 178.8,-46.1"/>
</g>
<!-- 5 -->
<g id="node6" class="node">
<title>5</title>
<path fill="none" stroke="#d8bc56" stroke-width="2" d="M300,-180C300,-180 196,-180 196,-180 190,-180 184,-174 184,-168 184,-168 184,-156 184,-156 184,-150 190,-144 196,-144 196,-144 300,-144 300,-144 306,-144 312,-150 312,-156 312,-156 312,-168 312,-168 312,-174 306,-180 300,-180"/>
<text text-anchor="middle" x="248" y="-159.5" font-family="sans" font-size="10.00">scampi_remove_atypical</text>
</g>
<!-- 5&#45;&gt;4 -->
<g id="edge7" class="edge">
<title>5&#45;&gt;4</title>
<path fill="none" stroke="grey" stroke-width="2" d="M221.58,-143.88C207.59,-134.81 190.22,-123.55 175.11,-113.76"/>
<polygon fill="grey" stroke="grey" stroke-width="2" points="176.82,-110.69 166.52,-108.19 173.01,-116.57 176.82,-110.69"/>
</g>
<!-- 12 -->
<g id="node13" class="node">
<title>12</title>
<path fill="none" stroke="#88d856" stroke-width="2" d="M284.5,-108C284.5,-108 219.5,-108 219.5,-108 213.5,-108 207.5,-102 207.5,-96 207.5,-96 207.5,-84 207.5,-84 207.5,-78 213.5,-72 219.5,-72 219.5,-72 284.5,-72 284.5,-72 290.5,-72 296.5,-78 296.5,-84 296.5,-84 296.5,-96 296.5,-96 296.5,-102 290.5,-108 284.5,-108"/>
<text text-anchor="middle" x="252" y="-87.5" font-family="sans" font-size="10.00">scampi_plotting</text>
</g>
<!-- 5&#45;&gt;12 -->
<g id="edge17" class="edge">
<title>5&#45;&gt;12</title>
<path fill="none" stroke="grey" stroke-width="2" d="M248.99,-143.7C249.43,-135.98 249.96,-126.71 250.45,-118.11"/>
<polygon fill="grey" stroke="grey" stroke-width="2" points="253.95,-118.29 251.02,-108.1 246.96,-117.89 253.95,-118.29"/>
</g>
<!-- 13 -->
<g id="node14" class="node">
<title>13</title>
<path fill="none" stroke="#5673d8" stroke-width="2" d="M449,-108C449,-108 327,-108 327,-108 321,-108 315,-102 315,-96 315,-96 315,-84 315,-84 315,-78 321,-72 327,-72 327,-72 449,-72 449,-72 455,-72 461,-78 461,-84 461,-84 461,-96 461,-96 461,-102 455,-108 449,-108"/>
<text text-anchor="middle" x="388" y="-87.5" font-family="sans" font-size="10.00">Rscript_analyse_citeseq_dsb</text>
</g>
<!-- 5&#45;&gt;13 -->
<g id="edge20" class="edge">
<title>5&#45;&gt;13</title>
<path fill="none" stroke="grey" stroke-width="2" d="M282.25,-143.88C301.06,-134.47 324.58,-122.71 344.67,-112.67"/>
<polygon fill="grey" stroke="grey" stroke-width="2" points="346.24,-115.79 353.62,-108.19 343.11,-109.53 346.24,-115.79"/>
</g>
<!-- 6 -->
<g id="node7" class="node">
<title>6</title>
<path fill="none" stroke="#d88d56" stroke-width="2" d="M276.5,-252C276.5,-252 203.5,-252 203.5,-252 197.5,-252 191.5,-246 191.5,-240 191.5,-240 191.5,-228 191.5,-228 191.5,-222 197.5,-216 203.5,-216 203.5,-216 276.5,-216 276.5,-216 282.5,-216 288.5,-222 288.5,-228 288.5,-228 288.5,-240 288.5,-240 288.5,-246 282.5,-252 276.5,-252"/>
<text text-anchor="middle" x="240" y="-231.5" font-family="sans" font-size="10.00">scampi_celltyping</text>
</g>
<!-- 6&#45;&gt;5 -->
<g id="edge8" class="edge">
<title>6&#45;&gt;5</title>
<path fill="none" stroke="grey" stroke-width="2" d="M241.98,-215.7C242.86,-207.98 243.92,-198.71 244.9,-190.11"/>
<polygon fill="grey" stroke="grey" stroke-width="2" points="248.39,-190.44 246.05,-180.1 241.43,-189.64 248.39,-190.44"/>
</g>
<!-- 7 -->
<g id="node8" class="node">
<title>7</title>
<path fill="none" stroke="#56d8c1" stroke-width="2" d="M293,-324C293,-324 179,-324 179,-324 173,-324 167,-318 167,-312 167,-312 167,-300 167,-300 167,-294 173,-288 179,-288 179,-288 293,-288 293,-288 299,-288 305,-294 305,-300 305,-300 305,-312 305,-312 305,-318 299,-324 293,-324"/>
<text text-anchor="middle" x="236" y="-303.5" font-family="sans" font-size="10.00">scampi_prepare_celltyping</text>
</g>
<!-- 7&#45;&gt;6 -->
<g id="edge9" class="edge">
<title>7&#45;&gt;6</title>
<path fill="none" stroke="grey" stroke-width="2" d="M236.99,-287.7C237.43,-279.98 237.96,-270.71 238.45,-262.11"/>
<polygon fill="grey" stroke="grey" stroke-width="2" points="241.95,-262.29 239.02,-252.1 234.96,-261.89 241.95,-262.29"/>
</g>
<!-- 8 -->
<g id="node9" class="node">
<title>8</title>
<path fill="none" stroke="#d8a456" stroke-width="2" d="M381,-468C381,-468 227,-468 227,-468 221,-468 215,-462 215,-456 215,-456 215,-444 215,-444 215,-438 221,-432 227,-432 227,-432 381,-432 381,-432 387,-432 393,-438 393,-444 393,-444 393,-456 393,-456 393,-462 387,-468 381,-468"/>
<text text-anchor="middle" x="304" y="-447.5" font-family="sans" font-size="10.00">scampi_sctransform_preprocessing</text>
</g>
<!-- 8&#45;&gt;7 -->
<g id="edge10" class="edge">
<title>8&#45;&gt;7</title>
<path fill="none" stroke="grey" stroke-width="2" d="M304.43,-431.96C304.21,-413.29 301.81,-382.95 290,-360 284.42,-349.16 275.79,-339.21 267.05,-330.94"/>
<polygon fill="grey" stroke="grey" stroke-width="2" points="269.21,-328.17 259.42,-324.11 264.54,-333.39 269.21,-328.17"/>
</g>
<!-- 11 -->
<g id="node12" class="node">
<title>11</title>
<path fill="none" stroke="#568ad8" stroke-width="2" d="M269,-396C269,-396 183,-396 183,-396 177,-396 171,-390 171,-384 171,-384 171,-372 171,-372 171,-366 177,-360 183,-360 183,-360 269,-360 269,-360 275,-360 281,-366 281,-372 281,-372 281,-384 281,-384 281,-390 275,-396 269,-396"/>
<text text-anchor="middle" x="226" y="-375.5" font-family="sans" font-size="10.00">scampi_phenograph</text>
</g>
<!-- 8&#45;&gt;11 -->
<g id="edge16" class="edge">
<title>8&#45;&gt;11</title>
<path fill="none" stroke="grey" stroke-width="2" d="M284.72,-431.7C275.08,-423.05 263.27,-412.45 252.77,-403.03"/>
<polygon fill="grey" stroke="grey" stroke-width="2" points="254.84,-400.18 245.06,-396.1 250.16,-405.39 254.84,-400.18"/>
</g>
<!-- 8&#45;&gt;13 -->
<g id="edge18" class="edge">
<title>8&#45;&gt;13</title>
<path fill="none" stroke="grey" stroke-width="2" d="M350.84,-431.95C399.62,-410.82 469,-369.74 469,-307 469,-307 469,-307 469,-233 469,-192.25 467.97,-178.94 447,-144 440.41,-133.02 430.83,-123.03 421.29,-114.75"/>
<polygon fill="grey" stroke="grey" stroke-width="2" points="423.3,-111.88 413.36,-108.22 418.85,-117.28 423.3,-111.88"/>
</g>
<!-- 9&#45;&gt;8 -->
<g id="edge12" class="edge">
<title>9&#45;&gt;8</title>
<path fill="none" stroke="grey" stroke-width="2" d="M303.25,-503.7C303.36,-495.98 303.49,-486.71 303.61,-478.11"/>
<polygon fill="grey" stroke="grey" stroke-width="2" points="307.11,-478.15 303.76,-468.1 300.11,-478.05 307.11,-478.15"/>
</g>
<!-- 10&#45;&gt;9 -->
<g id="edge13" class="edge">
<title>10&#45;&gt;9</title>
<path fill="none" stroke="grey" stroke-width="2" d="M231.48,-575.7C243.56,-566.8 258.45,-555.82 271.52,-546.2"/>
<polygon fill="grey" stroke="grey" stroke-width="2" points="273.81,-548.85 279.79,-540.1 269.66,-543.22 273.81,-548.85"/>
</g>
<!-- 11&#45;&gt;7 -->
<g id="edge11" class="edge">
<title>11&#45;&gt;7</title>
<path fill="none" stroke="grey" stroke-width="2" d="M228.47,-359.7C229.57,-351.98 230.9,-342.71 232.13,-334.11"/>
<polygon fill="grey" stroke="grey" stroke-width="2" points="235.61,-334.5 233.56,-324.1 228.68,-333.51 235.61,-334.5"/>
</g>
<!-- 12&#45;&gt;0 -->
<g id="edge3" class="edge">
<title>12&#45;&gt;0</title>
<path fill="none" stroke="grey" stroke-width="2" d="M238.16,-71.7C231.51,-63.39 223.42,-53.28 216.11,-44.14"/>
<polygon fill="grey" stroke="grey" stroke-width="2" points="218.66,-41.73 209.68,-36.1 213.2,-46.1 218.66,-41.73"/>
</g>
<!-- 13&#45;&gt;0 -->
<g id="edge4" class="edge">
<title>13&#45;&gt;0</title>
<path fill="none" stroke="grey" stroke-width="2" d="M341.03,-71.88C307.67,-59.71 263.52,-43.62 232.73,-32.39"/>
<polygon fill="grey" stroke="grey" stroke-width="2" points="233.82,-29.06 223.23,-28.93 231.43,-35.64 233.82,-29.06"/>
</g>
<!-- 14 -->
<g id="node15" class="node">
<title>14</title>
<path fill="none" stroke="#56c1d8" stroke-width="2" d="M425.5,-180C425.5,-180 346.5,-180 346.5,-180 340.5,-180 334.5,-174 334.5,-168 334.5,-168 334.5,-156 334.5,-156 334.5,-150 340.5,-144 346.5,-144 346.5,-144 425.5,-144 425.5,-144 431.5,-144 437.5,-150 437.5,-156 437.5,-156 437.5,-168 437.5,-168 437.5,-174 431.5,-180 425.5,-180"/>
<text text-anchor="middle" x="386" y="-159.5" font-family="sans" font-size="10.00">dsb_normalize_adt</text>
</g>
<!-- 14&#45;&gt;13 -->
<g id="edge19" class="edge">
<title>14&#45;&gt;13</title>
<path fill="none" stroke="grey" stroke-width="2" d="M386.49,-143.7C386.71,-135.98 386.98,-126.71 387.23,-118.11"/>
<polygon fill="grey" stroke="grey" stroke-width="2" points="390.72,-118.2 387.51,-108.1 383.73,-118 390.72,-118.2"/>
</g>
<!-- 15 -->
<g id="node16" class="node">
<title>15</title>
<path fill="none" stroke="#56d8a2" stroke-width="2" d="M427.5,-252C427.5,-252 338.5,-252 338.5,-252 332.5,-252 326.5,-246 326.5,-240 326.5,-240 326.5,-228 326.5,-228 326.5,-222 332.5,-216 338.5,-216 338.5,-216 427.5,-216 427.5,-216 433.5,-216 439.5,-222 439.5,-228 439.5,-228 439.5,-240 439.5,-240 439.5,-246 433.5,-252 427.5,-252"/>
<text text-anchor="middle" x="383" y="-231.5" font-family="sans" font-size="10.00">cellranger_count_adt</text>
</g>
<!-- 15&#45;&gt;14 -->
<g id="edge21" class="edge">
<title>15&#45;&gt;14</title>
<path fill="none" stroke="grey" stroke-width="2" d="M383.74,-215.7C384.07,-207.98 384.47,-198.71 384.84,-190.11"/>
<polygon fill="grey" stroke="grey" stroke-width="2" points="388.34,-190.25 385.27,-180.1 381.34,-189.95 388.34,-190.25"/>
</g>
<!-- 16 -->
<g id="node17" class="node">
<title>16</title>
<path fill="none" stroke="#56a2d8" stroke-width="2" d="M429,-324C429,-324 335,-324 335,-324 329,-324 323,-318 323,-312 323,-312 323,-300 323,-300 323,-294 329,-288 335,-288 335,-288 429,-288 429,-288 435,-288 441,-294 441,-300 441,-300 441,-312 441,-312 441,-318 435,-324 429,-324"/>
<text text-anchor="middle" x="382" y="-303.5" font-family="sans" font-size="10.00">create_library_file_adt</text>
</g>
<!-- 16&#45;&gt;15 -->
<g id="edge22" class="edge">
<title>16&#45;&gt;15</title>
<path fill="none" stroke="grey" stroke-width="2" d="M382.25,-287.7C382.36,-279.98 382.49,-270.71 382.61,-262.11"/>
<polygon fill="grey" stroke="grey" stroke-width="2" points="386.11,-262.15 382.76,-252.1 379.11,-262.05 386.11,-262.15"/>
</g>
</g>
</svg>
